<svg id="Group_47" data-name="Group 47" xmlns="http://www.w3.org/2000/svg" viewBox="0 0 1366 876.425">
  <defs>
    <style>
      .cls-1 {
        fill: #ff686b;
      }
    </style>
  </defs>
  <rect id="Rectangle_12" data-name="Rectangle 12" class="cls-1" width="1366" height="834"/>
  <path id="Path_19" data-name="Path 19" class="cls-1" d="M0,834l30.9,43.425L61.791,834l30.9,43.425L123.581,834l30.9,43.425L185.372,834l30.9,43.425L247.162,834l30.9,43.425L308.953,834l30.9,43.425L370.743,834l30.9,43.425L432.534,834l30.9,43.425L494.325,834l30.9,43.425L556.115,834l30.9,43.425L617.906,834l30.9,43.425L679.7,834" transform="translate(679.443 -1)"/>
  <path id="Path_18" data-name="Path 18" class="cls-1" d="M0,834l30.9,43.425L61.791,834l30.9,43.425L123.581,834l30.9,43.425L185.372,834l30.9,43.425L247.162,834l30.9,43.425L308.953,834l30.9,43.425L370.743,834l30.9,43.425L432.534,834l30.9,43.425L494.325,834l30.9,43.425L556.115,834l30.9,43.425L617.906,834l30.9,43.425L679.7,834" transform="translate(0 -1)"/>
</svg>
