<svg xmlns="http://www.w3.org/2000/svg" viewBox="-973.466 1885.836 95.892 109.006">
  <defs>
    <style>
      .cls-1 {
        opacity: 0.5;
      }

      .cls-2 {
        fill: #fff;
      }
    </style>
  </defs>
  <g id="H7r54a_2_" class="cls-1" transform="translate(-973.466 1885.836)">
    <g id="Group_20" data-name="Group 20" transform="translate(0 0)">
      <path id="Path_49" data-name="Path 49" class="cls-2" d="M75.027,35.229c-9.071,4.694-18.413,5.687-27.981,5.416-1.9-.045-3.746.09-5.641.226a32.75,32.75,0,0,1-15.48-3.114c-4.423-1.986-5.461-1.489-5.551,3.2-.045,2.3-.045,4.513,1.173,6.725.9,1.625.767,3.746,1.444,5.506,1.038,2.618,2.753,4.964,3.475,7.627.993,3.52,1.083,7.131-1.67,10.154-1.67,1.85-.677,3.836-.316,5.777q.406,2.3.677,4.6a1.749,1.749,0,0,1-.226,1.083c-.767.993-1.58,2.708-2.392,2.753-1.85.045-1.489-1.85-1.534-3.159-.135-3.926-2.3-6.228-6.138-6-4.649.226-6.77-2.979-8.936-6.138A37.378,37.378,0,0,1,3.9,66.144a9.313,9.313,0,0,1-1.128-2.211C1.283,55.9-.793,47.956.381,39.7a7.755,7.755,0,0,0,.09-2.031c-.993-4.739.542-9.3.993-13.991.406-4.062,2.979-6.815,5.28-9.748a5.086,5.086,0,0,1,2.888-1.67c6.048-1.038,11.869-2.166,17.285,2.8,4.107,3.746,9.162,6.77,15.164,6.5A58.008,58.008,0,0,0,51.74,20.11a39.906,39.906,0,0,0,7.492-2.3,40.929,40.929,0,0,0,8.755-4.739c2.437-1.9,4.242-4.6,6.228-7.04.993-1.219,1.625-2.753,2.708-3.836A6.241,6.241,0,0,1,84.144.478a70.517,70.517,0,0,1,7.988,3.565c3.2,1.76,4.2,4.649,3.656,8.259-.9,5.867-1.805,11.734-2.347,17.6-.271,3.249.271,6.589.361,9.884.045,3.881,0,7.808-.045,11.689-.09,4.558-.316,9.162-.271,13.72.045,5.055-1.986,9.342-4.513,13.449-1.67,2.663-4.739,2.8-7.221,3.972a15.028,15.028,0,0,1-2.031.587,6.132,6.132,0,0,1-1.264.5,30.878,30.878,0,0,1-15.3-1.625c-1.67-.677-2.979-.993-4.423-.451a63.384,63.384,0,0,1-.09,8.3,7.282,7.282,0,0,1-2.392,4.648c-3.475,2.663-3.7,6.138-3.385,9.884.271,3.114,0,3.565-3.114,4.242a11.2,11.2,0,0,1-2.437.271c-2.392,0-3.114-.722-3.249-3.069A28.57,28.57,0,0,0,40.1,94.17a34.741,34.741,0,0,1-2.3-5.822,55.038,55.038,0,0,0-1.76-5.461c-2.888-6.048-3.881-12.05.045-18.007,1.85-2.843,4.378-4.694,8.033-4.6,3.024.045,6.093-.542,8.981,0A37.634,37.634,0,0,1,62.3,63.662a14.558,14.558,0,0,0,10.831.767c.677-.181,1.67-.948,1.715-1.534.451-4.2,2.347-8.259,1.309-12.592a6.081,6.081,0,0,1-.09-1.58c0-3.385.045-6.815-.045-10.2A16.228,16.228,0,0,0,75.027,35.229ZM56.388,85.415l.045.045c-.045-5.055-6.183-8.259-10.29-8.665a7.2,7.2,0,0,1-5.1-2.843,4.046,4.046,0,0,1,1.489-6,9.057,9.057,0,0,0-.316,1.309c-.181.993-.767,2.572-.361,2.888A17.038,17.038,0,0,0,46.279,74.4a1.47,1.47,0,0,0,1.173-.722c.767-2.076,1.444-4.242,2.121-6.409-3.7-1.85-7.266-1.219-10.877-.5.587-.677,1.219-1.354,1.9-1.4a28.815,28.815,0,0,1,6.228-.135c1.986.271,3.791.948,4.829-1.489.09-.181.587-.181,1.309-.361-1.264,2.843-2.347,5.28-3.475,7.763a3.55,3.55,0,0,0,.632,4.468,3.821,3.821,0,0,0,2.618.857c.451,0,.9-1.083,1.219-1.715.5-1.038.9-2.076,1.309-3.159a5.5,5.5,0,0,1,.767.316c-.361,1.354-.767,2.663-1.083,4.017-.406,1.76.677,2.8,2.121,3.2.993.271,2.618.271,3.2-.316,3.34-3.34,2.031-7.627-2.527-8.62a3.484,3.484,0,0,1-.677-.09c-.993-.5-1.986-.993-2.753-1.4,1.534-1.083,2.663-1.9,4.242-2.979-.406,1.264-.677,2.121-1.038,3.249,1.9.542,3.656,1.038,4.784,1.354,2.392.857,4.152,1.489,5.912,2.166l-.135.542c-1.489-.135-3.024-.271-4.649-.406-.316,1.038-.632,2.031-.948,3.024-1.038,3.746,0,5.19,3.43,5.28.993-.9,1.76-1.534,2.527-2.211.181.181.316.406.5.587-.361.542-.722,1.083-1.128,1.76,1.85.045,2.527-.9,2.392-2.257-.181-1.941-.677-3.836-.993-5.732-.09-.767,0-1.534,0-2.888a5.144,5.144,0,0,0,7.9.632c-.451-.632-.9-1.309-1.354-1.941.181-.09.316-.226.5-.316,2.437,2.482,4.6,5.145,5.416,8.755.271,1.219.542,2.572,2.257,2.031,1.67-.5.677-1.625.451-2.572-.406-1.715-.226-3.2,1.4-4.152.5,1.354.9,2.527,1.534,4.2,1.038-.857,1.625-1.4,2.166-1.85-1.67-1.986-2.979-3.52-4.333-5.01C83.918,68.626,82.609,67.5,80.8,69.3c-.181.181-.587.045-1.58.09,1.128-.767,1.715-1.173,2.8-1.9-1.173-.5-1.85-.767-2.527-1.038.226-.226.406-.451.632-.677,2.121-.361,3.43,1.128,4.784,2.347,1.444,1.264,2.663,2.753,4.152,4.333.542-.993.948-1.715,1.489-2.8-1.038.587-1.67.948-2.257,1.264-.135-.812,0-1.264.316-1.534.858-.812,2.031-1.444,2.572-2.392,1.715-3.249,0-5.867-3.7-5.867H85.407c-.316,1.128-.587,1.986-.812,2.843-.677-1.128-.677-2.437-1.309-3.069s-1.9-.632-2.888-.9c.045-.181.09-.406.135-.587h3.295V54.049c-1.534-1.67-2.753-2.979-3.972-4.287a7.855,7.855,0,0,1,.542-.632c1.038.812,2.121,1.67,3.475,2.753-.542-2.753.361-5.506-2.482-7.356.857-.181,1.354-.271,2.076-.406-.361-1.9-.722-3.7-1.173-5.867a5.2,5.2,0,0,0,.045-6.363c.181-.135.361-.316.542-.316.587-.045,1.219,0,1.805,0,4.874.316,7-2.347,6.634-7.176a18.418,18.418,0,0,1,1.444-8.665c2.257-4.964.451-10.335-4.694-12-1.264-.406-2.618-.722-3.926-1.038-4.107-.9-5.777-.316-7.176,3.7a8.3,8.3,0,0,1-4.017,4.874c-2.618,1.534-2.572,3.114-.361,5.145.406.361.722.767,1.534,1.67a11.588,11.588,0,0,1-1.444-.451c-4.964-2.708-4.919-2.708-8.53,1.58-.361.406-1.038.857-1.444.767-2.753-.722-4.6.632-6.093,2.572-3.024-1.173-5.28.316-7.447,1.85-2.392-2.753-3.7.135-5.506,1.083-.045-2.618-1.67-2.3-3.385-2.211-2.257.09-4.513-.09-6.815-.181-.135,0-.361-.045-.406-.135-1.083-2.031-3.069-1.489-4.784-1.625a3.853,3.853,0,0,1-.948-.5c.406-.677.767-1.173,1.309-2.076-2.347-.406-4.378-.812-6.409-1.173v-.542c.587-.271,1.219-.587,1.805-.857a5.156,5.156,0,0,0-7.763-1.309c.09,2.347,2.257.948,3.385,1.805-.5.5-.9.948-1.264,1.354.722.812,1.354,1.444,1.941,2.121-.09.181-.226.316-.316.5-1.76-.677-3.159-3.836-5.416-1.219-1.354,1.58-2.527,3.385-3.791,5.145,2.753,1.309,2.437,5.19,5.867,4.919,2.527-6.77,5.912-10.2,9.568-9.162-1.4.767-2.482,1.354-3.926,2.121,1.128.587,1.941.948,2.708,1.4,2.211,1.219,4.423,2.527,6.273-.587.045-.045.361.09.722.181q-.745,1.354-1.354,2.437c2.347,2.843,4.558.948,6.77.045-.406.5-.812.993-1.4,1.715,4.784,1.219,9.3,1.986,13.765,1.4.226-1.534.406-2.8.587-4.107l.948.135a5.441,5.441,0,0,0-.09,2.076c.271.632,1.128,1.625,1.58,1.534,2.257-.361,4.468-.993,6.679-1.534-.451-1.489-.812-2.572-1.173-3.7l.677-.271c.451.948.677,2.211,1.444,2.8.677.5,1.941.226,3.385.316a9.865,9.865,0,0,1-5.777,2.392c-2.076.135-4.062.948-6.318,1.534.406,2.8.316,5.687,2.979,7.266,2.482,1.489,4.739.045,7-.993a1.94,1.94,0,0,0,1.038-2.934c-.632-1.264-1.219-2.572-1.805-3.836.181-.09.406-.226.587-.316,1.128,1.9,2.3,3.836,3.295,5.506,1.534-.857,3.069-1.354,3.972-2.392.812-.948.857-2.527,1.4-4.468.451,1.4,1.083,2.437.948,3.34-.09.993-.9,1.9-1.489,3.024,3.475-1.58,4.017-3.069,1.9-5.641-1.038-1.309-2.618-2.166-3.836-3.295-1.4-1.309-2.753-2.708-4.107-4.107l.677-.677a14.278,14.278,0,0,0,1.9,1.805c.722.451,1.9,1.083,2.347.767a53.026,53.026,0,0,0,5.732-4.333c.542-.451.677-1.58,1.264-1.85,2.888-1.219,4.017-3.926,5.867-6.183-1.489-.361-2.572-.587-3.656-.857.045-.271.045-.587.09-.857,2.618,0,5.687,1.083,6.86-2.888l.542.677c-.361.948-.767,1.941-1.128,2.843,4.558,3.249,6.093,5.371,5.416,7.266a32.626,32.626,0,0,0-3.069-4.333c-1.805-1.9-3.746-1.805-5.461.135a49.865,49.865,0,0,0-3.159,4.333c1.941,2.076,3.7,3.926,5.461,5.867,1.219-2.572,2.392-5.055,3.565-7.537.226.09.5.181.722.271,1.4,3.069-2.3,4.468-2.979,6.86.181.135.316.226.5.361,1.309-1.4,2.572-2.843,3.881-4.242a2.492,2.492,0,0,1,.722,3.972,25.561,25.561,0,0,1-2.708,2.708c-1.941,2.076-3.836,4.152-5.687,6.318-1.128,1.309-2.121,2.753-3.114,4.107v2.527c0,.948-.316,2.211.181,2.843,1.264,1.625.857,3.159.5,4.874a11.874,11.874,0,0,0-.226,3.565,35.068,35.068,0,0,1-.948,12.456c-.5,2.076-1.4,4.2-3.746,4.829-2.076.542-4.2.812-6.905,1.309-1.128-.451-3.024-1.219-4.919-1.986-2.888-1.219-5.777-2.437-8.665-3.61a3.107,3.107,0,0,0-1.128-.09c-2.934.181-6.048-1.444-8.846.632-.09.09-.316-.045-.451,0a14.948,14.948,0,0,0-3.61,1.354c-2.618,2.031-3.565,4.964-3.52,8.169a19.46,19.46,0,0,0,4.242,11.463,3.255,3.255,0,0,1,.812,2.347c-1.038,4.333.722,7.4,4.017,10.019a5.355,5.355,0,0,1,1.67,2.934,34.288,34.288,0,0,1,.09,5.28c3.61.09,3.791,0,3.52-3.024a7.816,7.816,0,0,1,3.52-7.717A7.445,7.445,0,0,0,56.388,85.415ZM3.765,51.251c-.722,2.392-.451,4.2.677,6.905A5.5,5.5,0,0,1,4.8,60.864c-.226,2.527,1.625,5.732,3.565,6.228-.271-.361-.722-.9-1.128-1.4,2.618.316,4.874.542,7.176.812.045.226.135.451.181.677-2.076.632-4.2,1.264-6.634,2.031.722.993,1.173,2.257,2.031,2.663a24.476,24.476,0,0,0,6.5,2.166c3.475.451,4.558.993,5.777,4.287.316.857.632,1.715.9,2.572.226-.045.406-.135.632-.181a42.849,42.849,0,0,0-1.264-4.874c-.361-.993-1.173-2.572-1.85-2.618-2.482-.135-2.888-2.076-3.746-3.61-1.534-2.8-2.934-5.687-4.333-8.485-4.784,1.038-6.77-.045-7.086-4.333,1.354,1.083,2.663,2.166,4.287,3.475,2.572-.181,2.618-.271,1.85-3.159-.722-2.663-2.076-5.325-2.121-7.988-.135-5.28.406-10.606.767-15.931a3.641,3.641,0,0,1,.948-2.211c1.444-1.444.632-2.347-.5-3.295A18.916,18.916,0,0,1,7.647,24.8c-.451-.587-.361-1.67-.5-2.482a20.364,20.364,0,0,1,2.392.451,1.672,1.672,0,0,1,.677.361C12.2,20.878,14.1,18.8,16.041,16.59A3.313,3.313,0,0,0,12.566,14.6c-3.746-.045-9.342,6.273-8.936,9.974,0,.135.09.316.09.451A22.905,22.905,0,0,1,3.4,28.053a28.265,28.265,0,0,1-.948,2.753c-1.083,3.656.857,6.363,3.52,9.3-1.219-.271-1.9-.406-2.572-.542-.045.226-.135.406-.181.632L8.1,41.954a2.239,2.239,0,0,1-1.85.812c-.812-.135-1.534-.812-2.3-.812-.587,0-1.58.5-1.715.993-.993,3.746.9,6.725,4.694,7.582.542.135,1.083.271,1.715.451C7.24,52.244,7.24,52.244,3.765,51.251Zm9.252-20.986c-6.589,10.109,1.309,36.015,8.8,42.017.857-2.708,1.85-5.28,2.437-7.9.271-1.173.135-3.385-.542-3.7-1.941-.993-2.031-2.527-2.3-4.2a6.886,6.886,0,0,0-.767-1.67L16.763,58.7a25.351,25.351,0,0,1,1.128-5.055c.181-.587.361-1.309.812-1.58,2.211-1.444.767-2.572.135-3.836-1.219.722-2.121,1.264-3.069,1.805a1.864,1.864,0,0,0-.316-.5c3.024-3.52,3.475-5.461,1.805-8.078-1.038.361-2.076.722-3.114,1.128-.135-.271-.271-.587-.406-.857,2.708.542.948-4.378,4.964-2.753-.316-1.354-.226-2.753-.812-3.2-.722-.5-2.031-.135-3.069-.135,0-.226-.045-.5-.045-.722.316-.181.632-.316.9-.5.316-.135.587-.271,1.309-.632C15.545,32.521,14.371,31.483,13.017,30.265ZM27.143,27.6c.181.135.361.226.542.361-.451.812-.9,1.67-1.354,2.527-1.489,2.979-.632,5.055,2.572,6.093a11.8,11.8,0,0,0,3.52.632,1.788,1.788,0,0,0,1.264-1.264c.045-2.347-.135-4.694-.271-7.131-3.024-1.354-6.228-2.934-9.568-4.242-1.083-.406-2.843-.632-3.61-.045-3.295,2.527-2.437,8.124,1.309,9.748,1.941.857,2.753.406,3.024-1.715C24.887,30.536,25.473,28.776,27.143,27.6ZM50.386,38.388c.316-.045.677,0,.722-.045.316-.857.948-1.85.722-2.572a42.969,42.969,0,0,0-2.257-5.416c-.045-.09-.406-.045-.632-.09-4.017-.406-8.033-.722-12.05-1.219-1.354-.135-1.941.316-2.211,1.534-1.173,5.235,1.173,7.988,6.5,7.943,2.076-.045,2.437-.677,1.805-2.572a32.464,32.464,0,0,1-.812-4.739c.361-.045.722-.09,1.038-.135a7.972,7.972,0,0,0,.316,2.347c.632,1.444,1.219,3.52,2.347,3.972,1.219.5,3.656.632,4.242-1.85.045-.135.361-.181.993-.542C50.792,36.358,50.611,37.35,50.386,38.388ZM69.16,23.946c1.4,2.031,2.437,3.475,3.385,5.01.857,1.354,2.076,2.3,3.565,1.58,2.708-1.354,5.506-2.753,6.905-5.641-1.264-1.534-2.437-2.979-3.7-4.378-.722-.812-1.534-1.67-2.888-.857C74.034,21.1,71.552,22.547,69.16,23.946Zm2.257,49.915c.135,2.076.181,4.062.406,6.048a2,2,0,0,0,.993,1.489c2.3.767,4.694.812,6.589-.812a3.913,3.913,0,0,0,1.038-3.295,18.728,18.728,0,0,0-2.482-4.423c-.09-.181-.587-.271-.812-.181C75.163,73.049,73.312,73.455,71.417,73.861Zm13-24.687c.542.9.9,2.3,1.625,2.527a5.832,5.832,0,0,0,3.7-.316,3.483,3.483,0,0,0,1.715-2.257,19.619,19.619,0,0,0-.361-4.558c0-.09-.226-.181-.361-.181C88.07,43.579,84.731,46.151,84.415,49.175Zm6.815,3.52c-5.551-.406-6.318.226-5.957,4.919.045.812.948,1.58,1.444,2.347a10.158,10.158,0,0,0,1.941-1.715,24.931,24.931,0,0,0,1.534-3.114,6.944,6.944,0,0,0,.857.361c-.451,1.489-.9,2.979-1.4,4.558C91.816,59.284,92.132,57.614,91.229,52.7ZM91.5,37.937c-2.482.5-4.062.722-5.551,1.083a2.024,2.024,0,0,0-1.625,2.708c.271.9,1.038,2.437,1.354,2.392,1.58-.226,3.43-.542,4.513-1.58C91.049,41.683,91,39.833,91.5,37.937Zm-7.04-.226c5.641.542,6.86-.632,5.822-6.093C84.144,33.289,84.144,33.289,84.46,37.711Z" transform="translate(-0.036 0.033)"/>
      <path id="Path_50" data-name="Path 50" d="M106.1,42.052c1.264,3.024-1.309,3.61-3.069,4.739,1.715,1.219,3.159.993,3.972-.271C107.908,45.166,107.908,43.5,106.1,42.052Zm-16.608,60.34c.542-1.941,1.038-3.926,1.625-6.093C88.231,98.556,87.644,101.129,89.495,102.392Zm22.7-15.525c-.361-.045-.677-.045-1.038-.09-.09,1.173-.181,2.392-.316,3.565.587.045,1.4.361,1.715.09C114.362,89.034,112.421,88.041,112.2,86.867ZM86.561,86.1c-2.076,2.437-1.85,4.287.406,6.048C86.832,90.117,86.742,88.447,86.561,86.1Zm13.72,5.641c-.316,1.805-.542,3.249-.9,5.28C101.68,95.036,101.815,93.818,100.281,91.742Zm-12.05,1.4c.406-.09.812-.135,1.219-.226-.135-.993-.316-2.031-.451-3.024-.316.09-.9.226-.9.316A21.28,21.28,0,0,0,88.231,93.141ZM135.889,18.9c.316,1.534.587,2.753.857,4.062C138.191,21.247,137.92,20.073,135.889,18.9ZM92.88,100.678a12.1,12.1,0,0,1-1.219-.316c-.271,1.128-.5,2.3-.767,3.43.316.09.677.181.993.271C92.2,102.934,92.518,101.806,92.88,100.678Z" transform="translate(-46.726 -10.355)"/>
      <path id="Path_51" data-name="Path 51" class="cls-2" d="M14.382,66.449c-.993-1.67-1.85-3.024-2.8-4.649C10.276,65.456,10.546,65.907,14.382,66.449ZM9.6,80.394c-.045,2.482,1.219,3.52,3.295,2.8C11.765,82.29,10.727,81.387,9.6,80.394Z" transform="translate(-5.282 -33.894)"/>
      <path id="Path_52" data-name="Path 52" d="M36.7,138.073c.722,1.309,1.128,1.986,1.805,3.159,1.264-1.4,2.437-2.708,3.565-3.972-.135-.135-.271-.226-.406-.361C40.13,137.261,38.55,137.622,36.7,138.073Z" transform="translate(-20.153 -75.101)"/>
      <path id="Path_53" data-name="Path 53" d="M65.723,75.4c-1.534.135-2.888.226-4.423.316C63.737,77.882,64.369,77.837,65.723,75.4Z" transform="translate(-33.651 -41.356)"/>
      <path id="Path_54" data-name="Path 54" d="M82.2,79.67c1.173.9,2.482,1.67,3.881.542.5-.406.5-1.444.722-2.211C85,78.632,83.689,79.128,82.2,79.67Z" transform="translate(-45.118 -42.783)"/>
      <path id="Path_55" data-name="Path 55" d="M171.274,52.7c-1.85,2.031-3.34,3.746-4.874,5.416a13.82,13.82,0,0,0,5.28-2.618A1.66,1.66,0,0,0,171.274,52.7Z" transform="translate(-91.318 -28.901)"/>
      <path id="Path_56" data-name="Path 56" d="M195.1,73.716c-.226-.09-.451-.226-.677-.316L192.8,76.649c.226.135.406.226.632.361C194.921,76.514,195.418,75.341,195.1,73.716Z" transform="translate(-105.803 -40.259)"/>
      <path id="Path_57" data-name="Path 57" class="cls-2" d="M112.892,189.3c-.542,3.43-1.76,6.544-4.513,8.8a7.582,7.582,0,0,1-3.069,1.67,2.862,2.862,0,0,1-2.166-1.173c-.316-.406.045-1.309.09-2.076a16.667,16.667,0,0,0,2.347,1.76,29.794,29.794,0,0,0,2.888-3.43c1.489-1.85,1.941-4.513,4.423-5.506C112.937,189.39,112.892,189.3,112.892,189.3Z" transform="translate(-56.54 -103.852)"/>
      <path id="Path_58" data-name="Path 58" class="cls-2" d="M127.924,70.2c1.805,1.444,1.805,3.114.948,4.468-.812,1.264-2.3,1.489-3.972.271C126.615,73.81,129.187,73.269,127.924,70.2Z" transform="translate(-68.547 -38.503)"/>
      <path id="Path_59" data-name="Path 59" class="cls-2" d="M93.486,196.493c-1.9-1.264-1.264-3.836,1.625-6.093C94.524,192.566,94.027,194.552,93.486,196.493Z" transform="translate(-50.718 -104.455)"/>
      <path id="Path_60" data-name="Path 60" class="cls-2" d="M143.509,169.39c.181,1.173,2.166,2.166.406,3.565-.316.271-1.128-.045-1.715-.09.09-1.173.181-2.392.316-3.565A7.382,7.382,0,0,1,143.509,169.39Z" transform="translate(-78.04 -92.878)"/>
      <path id="Path_61" data-name="Path 61" class="cls-2" d="M86.583,167.8c.135,2.347.271,4.017.406,6.048C84.733,172.087,84.552,170.237,86.583,167.8Z" transform="translate(-46.748 -92.055)"/>
      <path id="Path_62" data-name="Path 62" class="cls-2" d="M117.6,180.3c1.58,2.121,1.4,3.295-.9,5.28C117.061,183.5,117.287,182.06,117.6,180.3Z" transform="translate(-64.048 -98.914)"/>
      <path id="Path_63" data-name="Path 63" class="cls-2" d="M91.781,179.5c-.09-.948-.181-1.941-.181-2.888,0-.09.587-.226.9-.316.135.993.316,2.031.451,3.024C92.593,179.369,92.187,179.414,91.781,179.5Z" transform="translate(-50.276 -96.719)"/>
      <path id="Path_64" data-name="Path 64" class="cls-2" d="M197.6,18.9c2.031,1.173,2.257,2.347.857,4.062C198.187,21.653,197.916,20.389,197.6,18.9Z" transform="translate(-108.437 -10.355)"/>
      <path id="Path_65" data-name="Path 65" class="cls-2" d="M99.886,199.716c-.316,1.128-.632,2.257-.993,3.385-.316-.09-.677-.181-.993-.271.271-1.128.5-2.3.767-3.43C99.073,199.49,99.48,199.626,99.886,199.716Z" transform="translate(-53.733 -109.394)"/>
      <path id="Path_66" data-name="Path 66" class="cls-2" d="M9.6,103c1.173.993,2.211,1.9,3.295,2.8C10.817,106.52,9.553,105.482,9.6,103Z" transform="translate(-5.282 -56.5)"/>
      <path id="Path_67" data-name="Path 67" class="cls-2" d="M36.7,138.128c1.85-.406,3.43-.767,4.964-1.128.135.135.271.226.406.361-1.173,1.264-2.3,2.527-3.565,3.972C37.828,140.114,37.422,139.392,36.7,138.128Z" transform="translate(-20.153 -75.155)"/>
      <path id="Path_68" data-name="Path 68" class="cls-2" d="M65.723,75.4c-1.354,2.437-1.986,2.482-4.423.316C62.834,75.626,64.188,75.49,65.723,75.4Z" transform="translate(-33.651 -41.356)"/>
      <path id="Path_69" data-name="Path 69" class="cls-2" d="M82.2,79.67c1.534-.542,2.843-1.038,4.6-1.67-.226.767-.226,1.805-.722,2.211C84.682,81.34,83.373,80.572,82.2,79.67Z" transform="translate(-45.118 -42.783)"/>
      <path id="Path_70" data-name="Path 70" class="cls-2" d="M171.219,52.7a1.62,1.62,0,0,1,.361,2.8,13.5,13.5,0,0,1-5.28,2.618C167.834,56.4,169.369,54.731,171.219,52.7Z" transform="translate(-91.263 -28.901)"/>
      <path id="Path_71" data-name="Path 71" class="cls-2" d="M195.1,73.716c.316,1.625-.181,2.753-1.67,3.295-.226-.135-.406-.226-.632-.361l1.625-3.249A4.555,4.555,0,0,0,195.1,73.716Z" transform="translate(-105.803 -40.259)"/>
    </g>
  </g>
</svg>
