<svg xmlns="http://www.w3.org/2000/svg" viewBox="1255 513.151 466.704 354.445">
  <defs>
    <style>
      .cls-1 {
        fill: gray;
      }

      .cls-2 {
        fill: none;
        stroke: #fff;
        stroke-miterlimit: 10;
        stroke-width: 8.504px;
      }
    </style>
  </defs>
  <g id="Group_14" data-name="Group 14" transform="translate(1255 517.402)">
    <path id="Path_30" data-name="Path 30" class="cls-1" d="M380.7,274.32l20.007,74.1-49.225-38.2-30.226-23.377a117.041,117.041,0,0,1-54.406,13.293c-34.831,0-66.209-15.126-88.662-39.572-2.879.153-5.757.153-8.636.153a169.586,169.586,0,0,1-21.734-1.375A89.784,89.784,0,0,1,93.7,277.528C42.028,277.681,0,233.067,0,178.215c0-28.266,11.083-53.935,29.074-71.964C45.77,54.15,102.335,15.8,169.551,15.8c30.8,0,59.444,8.1,83.049,21.849a111.544,111.544,0,0,1,14.249-.917c34.256,0,65.2,14.668,87.654,38.5,53.255,7.181,94.275,50.573,94.275,102.98C448.779,221.607,420.712,258.735,380.7,274.32Z" transform="translate(0 1.771)"/>
    <path id="Path_31" data-name="Path 31" class="cls-2" d="M390.2,262.82l20.007,74.1-49.225-38.2-30.226-23.377a117.041,117.041,0,0,1-54.406,13.293c-34.831,0-66.209-15.126-88.662-39.572-2.879.153-5.757.153-8.636.153a169.586,169.586,0,0,1-21.734-1.375A89.784,89.784,0,0,1,103.2,266.028c-51.815,0-93.7-44.615-93.7-99.466C9.5,138.3,20.583,112.628,38.574,94.6,55.27,42.5,111.835,4.3,179.051,4.3c30.8,0,59.444,8.1,83.049,21.849a111.543,111.543,0,0,1,14.249-.917c34.256,0,65.2,14.668,87.654,38.5,53.255,7.181,94.275,50.573,94.275,102.98C458.279,210.107,430.068,247.235,390.2,262.82Z" transform="translate(4.174 -4.3)"/>
  </g>
</svg>
