<svg xmlns="http://www.w3.org/2000/svg" viewBox="1297 4918.071 119.106 211.105">
  <defs>
    <style>
      .cls-1 {
        fill: #8cc63f;
      }

      .cls-2 {
        fill: none;
        stroke: #fff;
        stroke-miterlimit: 10;
        stroke-width: 2.835px;
      }
    </style>
  </defs>
  <g id="Group_42" data-name="Group 42" transform="translate(1297 4918.071)">
    <g id="Layer_7_copy">
      <path id="Path_253" data-name="Path 253" class="cls-1" d="M134.181,29.169V0h19.466V32.019l5.943.121s0,1.152.061,1.88l4.063.3s0,2.79.061,4l.182,6.064h-2.365l.728,151.969s-20.254,3.214-32.322,0L126.783,44.208l-2.183-.3V34.687h4.427l.121-2.244s3.032-.061,4.973,0Z" transform="translate(-49.04)"/>
      <path id="Path_254" data-name="Path 254" class="cls-1" d="M21.71,101.866S21.528,97.56,24.2,97.5c1.941-.061,1.759,2.79,1.759,4.366s.182,18.678.182,18.678l.546,1.152.485,82.776s18.5,0,20.012,1.759v35.9s-.91,2.426-6.974,2.3H3.578S.546,244.8,0,242.009V205.017a10.844,10.844,0,0,1,4.548-.485c3.275.121,15.585-.243,15.585-.243l.606-82.655Z" transform="translate(0 -38.374)"/>
    </g>
    <path id="Path_255" data-name="Path 255" class="cls-2" d="M138.642,35.069V5.9h19.466V37.919l5.943.121s0,1.152.061,1.88l4.063.3s0,2.79.061,4l.182,6.064h-2.426l.728,151.969s-20.254,3.214-32.322,0L131.183,50.108,129,49.8V40.587h4.427l.121-2.244s3.032-.061,4.973,0Z" transform="translate(-50.772 -2.322)"/>
    <path id="Path_256" data-name="Path 256" class="cls-2" d="M26.21,107.766s-.182-4.306,2.486-4.366c1.941-.061,1.759,2.79,1.759,4.366s.182,18.678.182,18.678l.546,1.152.485,82.776s18.5,0,20.012,1.759v35.9s-.91,2.426-6.974,2.3H8.078s-3.032.364-3.578-2.426V210.917a10.844,10.844,0,0,1,4.548-.485c3.275.121,15.585-.243,15.585-.243l.606-82.655Z" transform="translate(-1.771 -40.696)"/>
    <path id="Path_257" data-name="Path 257" class="cls-2" d="M4.334,280.7s-2.608,2.85,8.854,2.547c3.214-.061,7.338-.121,11.583-.121,10.976,0,22.862.121,22.862.121s3.153.424,3.881-1.273" transform="translate(-1.606 -110.478)"/>
    <line id="Line_4" data-name="Line 4" class="cls-2" y2="3.153" transform="translate(22.923 169.433)"/>
    <line id="Line_5" data-name="Line 5" class="cls-2" y2="2.911" transform="translate(29.896 169.676)"/>
    <line id="Line_6" data-name="Line 6" class="cls-2" x2="5.882" transform="translate(23.529 86.779)"/>
    <line id="Line_7" data-name="Line 7" class="cls-2" x2="4.245" transform="translate(24.439 67.07)"/>
    <line id="Line_8" data-name="Line 8" class="cls-2" x2="4.245" transform="translate(24.439 70.405)"/>
    <line id="Line_9" data-name="Line 9" class="cls-2" x2="3.76" transform="translate(24.439 73.862)"/>
    <line id="Line_10" data-name="Line 10" class="cls-2" x2="4.306" transform="translate(24.439 76.833)"/>
    <line id="Line_11" data-name="Line 11" class="cls-2" x2="4.306" transform="translate(24.439 79.865)"/>
    <line id="Line_12" data-name="Line 12" class="cls-2" x2="5.094" transform="translate(23.711 83.019)"/>
    <line id="Line_13" data-name="Line 13" class="cls-2" y2="78.531" transform="translate(97.937 78.41)"/>
    <line id="Line_14" data-name="Line 14" class="cls-2" y2="59.308" transform="translate(104.001 76.833)"/>
    <line id="Line_15" data-name="Line 15" class="cls-2" y2="54.214" transform="translate(110.793 79.865)"/>
  </g>
</svg>
