<svg xmlns="http://www.w3.org/2000/svg" viewBox="-839.754 1673.377 301.378 592.547">
  <defs>
    <style>
      .cls-1 {
        fill: #ff686b;
      }

      .cls-2 {
        fill: none;
        stroke: #fff;
        stroke-miterlimit: 10;
        stroke-width: 5.669px;
      }
    </style>
  </defs>
  <g id="Group_56" data-name="Group 56" transform="translate(-1004.322 1609.244)">
    <g id="Group_23" data-name="Group 23" transform="translate(164.568 64.133)">
      <g id="IAHyln_4_" transform="translate(0 0)">
        <g id="Group_21" data-name="Group 21">
          <path id="Path_72" data-name="Path 72" class="cls-1" d="M198.758,415.163v3.649q-.561,60.208-1.31,120.417c-.187,11.883-.749,23.765-.936,35.648a11.251,11.251,0,0,1-5.707,9.918c-9.824,6.269-20.116,6.737-30.408,1.5-10.573-5.333-10.479-5.52-10.479-17.309V415.631H134.105c-.187,2.526-.468,5.146-.468,7.672-.281,34.9-.374,69.8-.655,104.7-.094,13.847-.281,27.6-.561,41.449a57.751,57.751,0,0,1-.655,6.924,13.3,13.3,0,0,1-7.579,10.385c-12.444,6.456-22.642,5.24-33.683-3.93-2.994-2.433-4.023-4.959-4.023-8.889.094-52.022-.094-104.137-.094-156.158v-4.117H82.738c-16.093-.187-32.186-.468-48.279-.655-.749,0-1.591-.094-2.339-.094-5.8-.281-6.456-.842-4.865-6.737q10.666-40.56,21.613-81.027C60,283.8,71.324,242.538,82.551,201.182a64.48,64.48,0,0,0,1.684-9.45c.281-2.9-.561-3.462-3.462-3.088a7.763,7.763,0,0,0-7.3,5.988c-4.678,15.345-9.544,30.689-14.128,46.127-6.83,22.83-13.473,45.659-20.21,68.489a91.785,91.785,0,0,1-3.555,9.637c-5.8,14.035-17.216,14.222-27.134,7.953-7.017-4.4-9.356-10.292-7.3-18.339C6.577,285.3,12.472,262,18.741,238.8c7.3-27.04,15.064-53.986,22.362-81.12,4.023-14.97,12.725-25.917,26.1-33.122,7.953-4.21,16.561-5.24,25.262-5.52,27.695-.748,55.483-1.31,83.178-1.965,7.579-.187,15.251-.655,22.83-.374,11.6.468,21.239,6.362,30.221,13.193,9.076,6.924,13.66,16.842,16.842,27.414,7.485,24.514,14.783,49.028,21.8,73.728,6.643,23.578,13.005,47.343,19.087,71.109,3.743,14.5-6.549,25.917-22.081,24.046-9.544-1.123-15.532-6.643-18.245-16.093-6.549-23.485-13.005-46.876-19.555-70.267-3.93-14.222-7.859-28.443-11.883-42.665-1.5-5.24-2.713-5.895-8.14-5.614-2.152.187-3.088,1.123-2.62,3.275,1.123,4.772,2.152,9.637,3.368,14.409q24.14,92.067,48.466,184.041c1.31,4.865,2.433,9.731,3.743,14.6.749,2.713.187,4.023-2.713,4.21-8.14.468-16.374,1.123-24.514,1.5-10.573.468-21.145.748-31.625,1.216A7.242,7.242,0,0,1,198.758,415.163Z" transform="translate(-0.431 -7.452)"/>
          <path id="Path_73" data-name="Path 73" class="cls-1" d="M101.391,45c1.029-18.245,10.292-31.25,25.917-39.671,18.619-10.011,44.162-5.614,58.665,9.45,16.093,16.748,17.216,39.765,3.181,58.384-18.339,24.42-53.986,26.385-75.319,5.052C104.76,69.234,100.456,58.287,101.391,45Z" transform="translate(-6.921 0.056)"/>
        </g>
      </g>
      <g id="IAHyln_3_" transform="translate(11.321 6.549)">
        <g id="Group_22" data-name="Group 22">
          <path id="Path_74" data-name="Path 74" class="cls-2" d="M210.858,422.157v3.649q-.561,60.208-1.31,120.417c-.187,11.883-.749,23.765-.936,35.648a11.251,11.251,0,0,1-5.707,9.918c-9.824,6.269-20.116,6.737-30.408,1.5-10.573-5.333-10.479-5.52-10.479-17.309V422.625H146.205c-.187,2.526-.468,5.146-.468,7.672-.281,34.9-.374,69.8-.655,104.7-.094,13.848-.281,27.6-.561,41.449a57.744,57.744,0,0,1-.655,6.924,13.3,13.3,0,0,1-7.579,10.386c-12.444,6.456-22.643,5.24-33.683-3.93-2.994-2.433-4.023-4.959-4.023-8.888.094-52.022-.094-104.137-.094-156.158V420.66H94.838c-16.093-.187-32.186-.468-48.279-.655-.749,0-1.591-.093-2.339-.093-5.8-.281-6.456-.842-4.865-6.737q10.666-40.56,21.613-81.027C72.1,290.793,83.424,249.531,94.651,208.176a64.481,64.481,0,0,0,1.684-9.45c.281-2.9-.561-3.462-3.462-3.088a7.763,7.763,0,0,0-7.3,5.988c-4.678,15.344-9.544,30.689-14.128,46.127-6.83,22.83-13.473,45.659-20.21,68.489a91.775,91.775,0,0,1-3.555,9.637c-5.8,14.035-17.216,14.222-27.134,7.953-7.017-4.4-9.356-10.292-7.3-18.339,5.895-23.3,11.789-46.595,17.964-69.8,7.3-27.04,15.064-53.986,22.362-81.12,4.023-14.97,12.725-25.917,26.1-33.122,7.953-4.21,16.561-5.24,25.262-5.52,27.695-.749,55.483-1.31,83.178-1.965,7.579-.187,15.251-.655,22.83-.374,11.6.468,21.239,6.362,30.221,13.193,9.076,6.924,13.66,16.841,16.842,27.414,7.485,24.514,14.783,49.028,21.8,73.729,6.643,23.578,13.005,47.343,19.087,71.109,3.743,14.5-6.549,25.917-22.081,24.046-9.544-1.123-15.532-6.643-18.245-16.093-6.549-23.485-13.005-46.876-19.555-70.267-3.93-14.222-7.859-28.443-11.883-42.665-1.5-5.24-2.713-5.895-8.14-5.614-2.152.187-3.088,1.123-2.62,3.275,1.123,4.772,2.152,9.637,3.368,14.409q24.139,92.067,48.466,184.04c1.31,4.865,2.433,9.731,3.743,14.6.749,2.713.187,4.023-2.713,4.21-8.14.468-16.374,1.123-24.514,1.5-10.573.468-21.145.748-31.625,1.216C212.261,421.876,211.7,421.97,210.858,422.157Z" transform="translate(-12.531 -14.446)"/>
          <path id="Path_75" data-name="Path 75" class="cls-2" d="M113.491,52c1.029-18.245,10.292-31.25,25.917-39.671,18.619-10.011,44.162-5.614,58.665,9.45,16.093,16.748,17.216,39.765,3.181,58.384-18.339,24.42-53.986,26.385-75.319,5.052C116.86,76.14,112.556,65.193,113.491,52Z" transform="translate(-19.021 -6.944)"/>
        </g>
      </g>
    </g>
  </g>
</svg>
