<svg xmlns="http://www.w3.org/2000/svg" viewBox="-289 508 198.691 234.92">
  <defs>
    <style>
      .cls-1 {
        fill: #4d4d4d;
      }

      .cls-2 {
        fill: #f2f2f2;
      }

      .cls-3 {
        fill: #333;
      }
    </style>
  </defs>
  <g id="Group_62" data-name="Group 62" transform="translate(-288.94 508)">
    <path id="Path_294" data-name="Path 294" class="cls-1" d="M39.7,69.3c0,37.4-15.7,131.5-13.8,149,2.6,24,26.1,3.7,35.8,0,20.6-7.8,30.5,18.6,42.6,15.1s20.2-30.3,38.8-15.1c15.2,12.3,24.2,23.7,38.5,11.2,11-9.7-9.6-120.2-12.7-160.2C166.1,33.7,140,4.7,104.3,4.7A64.635,64.635,0,0,0,39.7,69.3Z"/>
    <path id="Path_295" data-name="Path 295" class="cls-1" d="M170.9,98.9s39,3.1,24.5,16.3-20,9.9-20,9.9"/>
    <path id="Path_296" data-name="Path 296" class="cls-2" d="M13.9,64.6C13.9,102-1.8,196.1.1,213.6c2.6,24,26.1,3.7,35.8,0,20.6-7.8,30.5,18.6,42.6,15.1s20.2-30.3,38.8-15.1c15.2,12.3,24.2,23.7,38.5,11.2,11-9.7-9.6-120.2-12.7-160.2C140.3,29,114.2,0,78.5,0A64.571,64.571,0,0,0,13.9,64.6Z"/>
    <circle id="Ellipse_53" data-name="Ellipse 53" class="cls-3" cx="9.2" cy="9.2" r="9.2" transform="translate(46.2 56.8)"/>
    <circle id="Ellipse_54" data-name="Ellipse 54" class="cls-3" cx="9.2" cy="9.2" r="9.2" transform="translate(90.7 56.8)"/>
    <ellipse id="Ellipse_55" data-name="Ellipse 55" class="cls-3" cx="16.5" cy="7.2" rx="16.5" ry="7.2" transform="translate(60.7 86.9)"/>
    <path id="Path_297" data-name="Path 297" class="cls-2" d="M145.2,94.1s39,3.1,24.5,16.3-20,9.9-20,9.9"/>
  </g>
</svg>
