<svg xmlns="http://www.w3.org/2000/svg" viewBox="705.381 3281.052 272.555 157.312">
  <defs>
    <style>
      .cls-1 {
        fill: #48762a;
      }

      .cls-2 {
        fill: #d9e021;
      }

      .cls-3 {
        fill: #fff;
      }

      .cls-4, .cls-5 {
        fill: #009245;
      }

      .cls-4 {
        stroke: red;
        stroke-miterlimit: 10;
      }
    </style>
  </defs>
  <g id="Group_35" data-name="Group 35" transform="translate(705.626 3280.951)">
    <g id="_x35_ZJZBB_2_" transform="translate(-0.246 0.1)">
      <g id="Group_30" data-name="Group 30">
        <path id="Path_88" data-name="Path 88" class="cls-1" d="M226.125,27.544c.509-.678,1.187-1.272.339-2.12.17-.17.424-.339.509-.509.763-1.357,1.357-1.1,1.95.17.17.424.593.933.933.594.933-.678,2.289-.594,2.967-1.7.339-.085.678-.17.933-.254a1.226,1.226,0,0,1,.594-.17.854.854,0,0,0,.933-.509h0a19.434,19.434,0,0,0,6.359-2.459,2.6,2.6,0,0,0,2.035-.678c.763.17,1.187-.339,1.7-.763a2.569,2.569,0,0,0,1.781,0c2.2-1.017,4.663-.594,6.868-1.441a1.867,1.867,0,0,1,.678.085c3.476,1.611,5.426.848,6.444-2.628a3.39,3.39,0,0,1,1.187-1.865c0,1.357.763,2.459.509,3.815a.51.51,0,0,1-.085.339c-.678.763-1.272,1.526.254,1.95,1.1.594,2.289,1.1,3.391,1.7a.982.982,0,0,0,1.187.509,1.025,1.025,0,0,0,1.1.594c0,.254.085.254.254.17a15.882,15.882,0,0,0,4.155,4.409c.339.848.424,1.7,1.187,2.289a.643.643,0,0,1,.17.339c-.085.17,0,.254.17.339.085.17.17.254.254.424-.085.17,0,.339.17.339.17.339.339.594.509.933a.438.438,0,0,0,.254.594c.085.254.17.424.254.678a1.514,1.514,0,0,0,.509,1.526c.085.085.085.17.254.254.509.509,1.1.254,1.611,0h1.017c.085.424.254.763.339,1.187-.594.17-1.272.339-1.865.509-.254.085-.509.254-.254.509.17.17.424.085.678.17v.339c-1.357,0-1.1.763-.678,1.611.424.763,1.1.678,1.781.678.594.678,0,1.017-.339,1.441h0c-.763.085-1.7-.17-1.7,1.1a19.955,19.955,0,0,0-.17,4.494A1.733,1.733,0,0,0,277,47.978a1.832,1.832,0,0,0-.848,1.865l-.254.763c-.254.17-.339.339-.17.593a5.4,5.4,0,0,0-.17.594,6.933,6.933,0,0,0-2.035,4.07c-.678-.085-1.017.17-1.1.933-.17,1.357-.424,2.628-.594,3.985-.509.17-1.1.424-1.611,0-.085-.509.254-1.272-.424-1.441-.509-.17-.848.339-1.272.593a4.4,4.4,0,0,0-1.611,1.441c-1.526.933-2.967,1.865-4.494,2.713-.085.085-.254.17-.339.254-.254-.085-.339,0-.424.254-.085.085-.17.085-.339.17a19.052,19.052,0,0,1-1.78,1.017c-1.187.593-1.357,1.441-.339,2.374a1.7,1.7,0,0,0,1.611.678c0,.17.085.424.085.593-.594.085-1.1.254-1.7.339-1.95-2.12-2.713-2.289-4.579-1.1-.339,0-.933-.17-.933.509a1.443,1.443,0,0,1-.085.594c-.509-.339-.848-.424-.848.339-.085,0-.254.085-.339.085-1.526.594-3.646.424-3.985,2.8-.085.509-.594,1.7-1.357.254-.254-.509-.763-.339-1.1-.085-1.187.848-2.628,1.272-3.646,2.374a4.984,4.984,0,0,0-2.713,1.611c-.933-.085-1.611.085-1.781,1.1h-1.1c-.17-.085-.254-.085-.339.17-.085.085-.17.085-.254.17-.509,0-1.017,0-.933.763h0c-.424-.339-.763-.085-1.187.085-2.374,1.357-4.663,2.628-7.037,3.9-.933.509-1.781.933-2.713,1.441-3.985.933-4.07,3.9-3.391,7.292a6.861,6.861,0,0,1-.933-2.2,2.35,2.35,0,0,0-1.441-1.95.579.579,0,0,0-.424.254c-.254.848.339,1.441.678,2.2.424,1.1,1.441,2.374.085,3.561,0-1.7-1.1-3.052-1.441-4.663-.17-.509-.509-.763-.933-.424s-1.272.339-1.017,1.272c.339,1.357.17,2.883.848,4.155-.424.17,0,.848-.594,1.017a8.838,8.838,0,0,1-.933-2.883c-.848-2.713-.848-2.713-2.883-.678h-1.357a10.149,10.149,0,0,1-2.628,1.526.311.311,0,0,0-.254.085.428.428,0,0,0-.594.339c-5.172,2.544-10.344,5.087-15.686,7.207a1.268,1.268,0,0,0-1.441,1.1c-1.187.594-.254,1.272-.17,1.95-.848-.17-1.187-1.441-2.289-1.1-1.1-.593-1.95-.085-2.8.509-1.441.339-2.968-.509-4.324.593h-.678c-1.1-.509-1.865-.509-1.441,1.017a11.55,11.55,0,0,0-.678,4.155c-.933-.678-.594-1.526-.339-2.459s.678-1.865,0-2.968c-.594.509-.254,1.526-1.1,1.611-.678-.848.763-2.713-1.441-2.713-1.526-.509-2.968-1.1-4.494-1.611-1.1-.848-2.289-1.611-3.815-1.272-.17-1.526-2.035-1.441-2.544-2.628-.848-1.187-1.357-2.8-3.307-2.8.085-.848.339-1.611-.678-2.035-1.187-1.187-1.526-.509-1.611.763-.509.085-.763-1.357-1.441-.339a3.827,3.827,0,0,0-2.12.594A169.9,169.9,0,0,0,132.605,106.4c-5.85,4.155-11.107,9.242-17.042,13.481-.678-1.1.509-1.187.933-1.611,1.187-1.272,1.1-2.289-.339-2.968-1.017-.509.339-.763.085-1.1,6.189-4.494,11.87-9.581,18.314-13.651a3.673,3.673,0,0,0,.424-.085c.763-.339,1.781-.509,1.357-1.781a12.513,12.513,0,0,0,6.1-2.968c.763-.254,1.611-.254,1.781-1.357.17-.085.424-.085.593-.17.339.085.678.085.763-.339a37.679,37.679,0,0,0,6.444-2.544c.933.17,1.017-.933,1.95-1.187,3.731-.933,4.07-1.865,2.459-5.257,0-.763-.763-.763-1.1-1.187.509-.085.763-.339.678-.848-.085-.933-.17-1.781-.254-2.713-.254-3.137-1.865-4.663-5.172-4.918-1.441-1.7.17-1.272.933-1.441.933.424,2.035-.17,2.968.509-.17.593-1.1.339-.933,1.017a1.135,1.135,0,0,0,1.187.678c.678,0,.763-.424.848-1.017.17-1.017.339-2.035.594-3.052a12.959,12.959,0,0,0,.678-4.409c.254-.17.424-.254.678-.424.509-.848.933-1.7,1.441-2.544a9.685,9.685,0,0,1,2.2-3.052c.424-.509,1.017-.848.848-1.7,1.187.424,1.526-.678,2.289-1.187l.254-.254c.254.085.424,0,.424-.254.085-.085.17-.085.254-.17h.17v-.17c.085-.085.17-.085.254-.17.254.085.424,0,.424-.339.085,0,.085-.085.17-.085.17.085.254,0,.254-.17l.17-.17c.509-.17,1.017-.254,1.272-.763,1.1-.594,2.2-1.272,3.307-1.865.763-.424,1.187-.848.509-1.865a12.585,12.585,0,0,1-1.272-2.628c1.1-.254,1.017.848,1.441,1.272a2.9,2.9,0,0,0,4.239.339c.085,0,.085-.085.17-.17,1.357-.678,2.713-1.357,3.985-2.035.17-.085.254-.17.424-.17.933,0,1.1-1.441,1.7-1.357,1.611.339,1.187-.848,1.187-1.526a12.922,12.922,0,0,1,1.95-6.359,6.253,6.253,0,0,1-.339,3.815,1.761,1.761,0,0,0,.848,2.459,1.707,1.707,0,0,0,2.289-1.441c.085-1.611.933-1.441,1.95-.933,1.611.254,2.713-.763,3.985-1.441,1.1.085,1.781-.933,2.8-1.272,1.611-.509.17-1.865.763-3.052.17,2.2,1.187,2.12,2.459,1.357a1.283,1.283,0,0,0,1.187-.594,6.183,6.183,0,0,0,2.2-.763c1.865-.594,3.137-2.289,5.087-2.544.254-.17.424-.339.678-.509,1.017-.509,2.2-.339,3.052-1.187.763-.424,1.7-.509,2.289-1.272A37.506,37.506,0,0,0,220.19,30c1.441-.933,3.476-.594,4.578-2.12.085,0,.085-.085.17-.085C225.277,27.714,225.7,27.629,226.125,27.544Zm40.7,18.229a12.117,12.117,0,0,1-8.224-1.187c-.678-.254-1.526-.424-1.441-1.441,0-.594,3.052-2.628,3.731-2.459a.841.841,0,0,1,.594,1.017c-.594,1.781.763,2.035,1.865,2.2a15.442,15.442,0,0,0,2.8.085,1.688,1.688,0,0,0,1.781-1.781c-.085-2.883.085-5.85-1.357-8.479-.509-.933-1.017-1.1-1.611-.339a8.069,8.069,0,0,1-1.781,1.611c-.509.424-1.017.763-1.611.17-.763-.763,0-1.187.424-1.7a13.035,13.035,0,0,0,1.017-1.1,2.812,2.812,0,0,0,.848-2.12c-1.187.254-1.781-1.781-3.222-.848a1.8,1.8,0,0,1-2.8-.763c-.339-.678-.678-.594-1.272-.678-1.357-.254-2.035,1.017-3.137,1.272-2.883.763-3.646,1.95-2.8,4.663A5.116,5.116,0,0,1,249.1,38.99c-.594.424-1.526,1.017-2.12.254-.509-.594.424-1.187.848-1.526,1.272-1.1,1.441-2.12.848-3.731-.424-1.017-1.611-1.272-1.526-2.374.085-1.611-.509-.933-1.187-.424-1.1.763-2.035,1.865-3.391,2.2-3.731,1.017-6.783,3.391-10.259,4.833-1.865.763-3.391,2.544-5.6,2.8-.254,0-.594.254-.848.339-1.865.509-2.968,2.2-5,2.713-2.713.678-5.935,1.187-5.85,5.342a2.479,2.479,0,0,1-2.374,2.459c-.848.085-1.526-.254-.763-1.1a1.789,1.789,0,0,0,.085-2.2c-.424-.848-1.187.085-1.781.085-1.017,0-1.865.424-1.7,1.7a3.354,3.354,0,0,0,3.137,2.628,11.768,11.768,0,0,0,4.833-1.017c.424-.17,1.187-.424,1.357.339.17.678-.254.933-.848,1.187a12.909,12.909,0,0,1-5.087.933,1.747,1.747,0,0,0-1.611.933c-.763,1.017-1.1,2.459-2.374,3.052a3.254,3.254,0,0,0-2.035,2.289c-.17.678-.424,1.865-1.526,1.357-1.017-.509-.848-1.441-.254-2.374a3.123,3.123,0,0,0,.509-2.968c-.17-.424-.594-.933.085-1.272a.948.948,0,0,1,1.187.594c.509.848.848.763,1.272,0,.763-1.272.424-4.833-.763-5.85-1.1-.933-2.459-.17-3.731.17a14.071,14.071,0,0,1-1.357.509c-1.1.254-1.357.933-.763,1.781a5.326,5.326,0,0,1,.678,3.9,1.867,1.867,0,0,0,.848,2.035.893.893,0,0,1-.254,1.7c-2.035.593-4.155.933-6.274,1.357-.509.085-1.272-.17-1.272-.848s.763-.424,1.187-.509c.848-.17,2.374.254,2.459-.678.254-1.7,1.357-3.052,1.526-4.748,0-.594.085-1.187-.424-1.526-.594-.424-1.187-.085-1.7.254-.594.339-.933.678-.594,1.441a1.425,1.425,0,0,1-.254,1.865c-.594.424-1.187.085-1.781-.17a17.944,17.944,0,0,1-1.781-.933,2.521,2.521,0,0,0-2.459-.085,62.459,62.459,0,0,0-6.613,3.646,15.869,15.869,0,0,0,5.765,2.8c.848.17,1.526.848,1.017,1.781-.424.848-1.1.593-1.865.254a13.321,13.321,0,0,1-4.663-3.137c-1.187-1.272-2.544-.848-2.883.763-.339,1.441-1.017,1.781-2.2.848-.678-.509-.933-.678-1.357.17-.254.509-.848.509-1.272.763-3.052,1.441-6.444,2.289-8.055,5.765a1.461,1.461,0,0,1-.509.509c-3.391.933-3.476,3.9-3.9,6.529-.763,4.07,1.611,7.207,3.391,10.514a18,18,0,0,0,2.459,3.222c.254.254.594.763,1.017.509a1.351,1.351,0,0,0,.339-1.017,5.768,5.768,0,0,1,1.272-3.985c.424-.424.678-1.272,1.441-.763.678.424.339,1.1,0,1.7a8.946,8.946,0,0,0-1.017,4.663c0,.424-.17,1.187.509,1.187a4.46,4.46,0,0,1,2.713,1.017c.509.424.848.085,1.187-.339,1.272-1.611,3.985-2.12,5.511-.933,1.272.933,1.781.509,2.374-.763a31.527,31.527,0,0,0,1.611-5.511c.17-.678.254-1.7,1.272-1.526s.933,1.017.678,1.865c-.509,1.7-.848,3.476-1.357,5.511a10.332,10.332,0,0,0,5-6.274c.17-.593.254-1.441,1.1-1.526a1.663,1.663,0,0,1,1.611,1.017c.848,1.865,1.7.763,2.2-.085a2.511,2.511,0,0,1,2.544-1.441,9.555,9.555,0,0,0,2.713-.424c1.781-.509,3.137-1.357,3.222-3.561a10.486,10.486,0,0,1,1.7-5.426c.678-1.017,1.7-1.7,2.628-1.017,1.017.763-.339,1.441-.848,1.95-1.781,2.12-2.374,4.239-1.441,6.02a3.79,3.79,0,0,0,1.441-2.035,2.194,2.194,0,0,1,1.187-1.272,52.16,52.16,0,0,0,6.868-3.476c.763-.509,2.544-.17,2.2-1.272-.254-.933-1.865-.763-2.967-.848-.763-.085-1.187-.339-1.1-1.1s.678-1.017,1.357-.933a1.432,1.432,0,0,1,.848.254c1.865,1.1,3.052,1.017,3.391-1.526.085-1.017,1.272-1.781.763-2.883-.254-.509-.509-1.017,0-1.526.594-.509,1.187-.085,1.7.17.678.254,1.017.848,1.526,1.357,1.95,1.865,4.239,1.357,5-1.1a5.046,5.046,0,0,1,1.357-2.2,28.108,28.108,0,0,0,2.2-2.289c.339-.424,1.017-1.017.424-1.611-.509-.509-1.017.17-1.441.509L230.195,61.2c-.593-1.017,0-1.526.509-2.035a29.818,29.818,0,0,0,3.646-4.324c1.441-2.12,4.07-2.8,6.529-3.391-2.035,1.526-3.985,2.968-5.172,5.342-.594,1.187-.085,1.7.339,2.459.509.933,1.187.424,1.781.254,1.78-.509,3.646-1.272,5.426-1.017,2.374.424,4.07-.678,5.85-1.7.678-.424,2.12-.933,1.781-1.781-.848-2.459,1.272-3.222,2.374-4.494a1.035,1.035,0,0,1,1.611-.17c.678.678.424,1.187-.085,1.781a12.408,12.408,0,0,1-2.374,1.781c-.424.254-.763.763-.17,1.1.848.424,3.646-.594,4.155-1.526a2.221,2.221,0,0,1,2.883-1.272,1.8,1.8,0,0,0,1.95-.254C263.092,50.182,265.466,48.826,266.822,45.773ZM155.074,91.643a2.821,2.821,0,0,0-2.2.339c-2.289.933-4.494,1.95-6.783,2.968s-4.07,2.968-6.613,3.815c-3.052,1.017-5.511,3.222-8.055,5.172-.509.339-1.357.933-.763,1.611.594.763,1.357.085,1.95-.254,3.646-2.035,6.952-4.663,10.683-6.529,3.052-1.526,5.511-4.07,8.818-5.257C153.124,93,154.4,92.745,155.074,91.643Zm68-20.264c1.017-.594,2.2-1.187,3.307-1.865.17-.085.339-.594.085-.594-.848-.254-1.611-1.272-2.713-.763a3.412,3.412,0,0,0-1.611,2.883C222.14,71.379,222.564,71.379,223.073,71.379Zm10.937-9.242c-1.187,1.526-2.883,1.95-3.052,3.815,1.187-1.865,3.222-.424,5-1.441C234.519,64.426,234.264,63.578,234.01,62.137Z" transform="translate(-17.342 -2.108)"/>
        <path id="Path_89" data-name="Path 89" class="cls-1" d="M139.335,86.2c3.307.17,4.918,1.781,5.172,4.918.085.933.17,1.781.254,2.713.085.594-.17.763-.678.848-.763,1.017-2.035.763-3.052,1.187h4.155c1.7,3.476,1.357,4.324-2.459,5.257-.848.254-.933,1.357-1.95,1.187-2.12-1.1-4.494-.933-6.783-1.272-6.1-.848-12.294-1.526-18.483-2.289-.593-.085-1.187-.339-1.781-.424a8.184,8.184,0,0,0-5.681,0c-4.833.848-9.5,2.035-13.735,4.578-4.748,2.883-9.5,5.85-14.583,8.309-2.2,1.017-3.9,2.968-5.765,4.663-.509.424-.848,1.017-1.611,1.272a1.17,1.17,0,0,0-.339-.254c3.052-3.9,7.037-6.613,12.04-8.818-2.628.17-6.189,2.035-8.563,3.9-4.748,3.815-8.479,8.563-12.972,12.633-2.035,1.865-4.155,3.646-6.189,5.511-.339,0-.594,0-.763.339a.854.854,0,0,0,.085.254c.424.085.678-.17.763-.594,2.8-.848,4.748-2.968,6.868-4.748,2.8-2.459,5.426-5.172,8.139-7.716l.254.254a59.1,59.1,0,0,1-13.99,12.8,36.505,36.505,0,0,1-15.092,5.257,1.655,1.655,0,0,1-.594-.085c.17-1.1,1.1-1.272,1.781-1.357,7.97-1.7,14.329-6.1,19.925-11.87,3.222-3.307,6.189-6.868,9.75-9.92a25.921,25.921,0,0,1,8.055-5.087c3.476-1.357,6.444-3.561,9.581-5.511,6.444-4.07,13.481-6.444,21.112-5.765,7.631.593,15.262.933,22.723,2.544a17.912,17.912,0,0,0,6.02.424,25.428,25.428,0,0,1-6.02-2.628c-.678-.424-1.781-.17-2.713-.085a13.888,13.888,0,0,1-4.07-.339,6.907,6.907,0,0,1,4.239-1.187c3.391-.339,6.613-1.357,10-1.611,1.187-.085,1.95-.509,1.781-1.95-.17-1.272-.424-2.12-2.035-2.12a76.443,76.443,0,0,0-9.835.509c-.678.085-1.357.339-2.035-.509a27.057,27.057,0,0,1,7.207-2.12C138.148,86.878,138.911,86.963,139.335,86.2Zm-85.21,45.7a3.565,3.565,0,0,0,.17-.424c-.17-.085-.254-.17-.424-.17a.563.563,0,0,0-.424.339C53.361,131.815,53.616,131.815,54.124,131.9Z" transform="translate(-6.182 -13.199)"/>
        <path id="Path_90" data-name="Path 90" class="cls-1" d="M98.654,132.2c.254.339-1.1.594-.085,1.1,1.441.678,1.441,1.7.339,2.968-.424.424-1.611.509-.933,1.611-.085.254-.254.424-.594.254-.17-.085-.254-.085-.424-.17a1.171,1.171,0,0,1,.254.339c-2.2,1.95-5,3.137-7.546,4.663-.933.594-2.12.678-2.628,1.865-.509.085-1.017.085-1.1-.678.424-1.272,1.7-1.272,2.544-1.865.678-.509,1.611-1.187,1.272-2.035-.509-1.1-1.526-.424-2.289-.085-2.8,1.357-5.6,2.8-8.479,4.324a6.88,6.88,0,0,1,.933.254c.17,1.017,1.272.424,1.865,1.187-3.052,1.187-6.274,1.865-8.563,4.409l-.085-.085.085-.085c-.17-.593-.254-1.1-.424-1.7.254-.424.424-.848.763-1.526-6.274,3.052-12.464,5.511-18.483,8.394a77.308,77.308,0,0,0,7.461-2.544c2.544-.933,4.918-2.12,7.631-2.374,0,.254-.085.424-.085.678-4.748,1.95-9.581,3.561-14.329,5.342-9.666,3.646-19.755,6.189-29.506,9.666a198.912,198.912,0,0,0-23.91,10.259c-.848.424-1.7.678-2.544,1.1-.17-.678.254-.848.594-1.017A177.262,177.262,0,0,1,28.96,163.4c6.613-2.374,13.311-4.663,19.84-7.122,7.97-2.968,15.686-6.529,23.486-9.92A166.067,166.067,0,0,0,93.652,135C95.517,134.15,96.789,132.624,98.654,132.2Z" transform="translate(0.246 -20.197)"/>
        <path id="Path_91" data-name="Path 91" class="cls-1" d="M123.685,113.344c.424,1.272-.594,1.441-1.357,1.781-.085-.085-.085-.254-.17-.339-.17-.254-.254-.339-.424,0h0c-5,.509-10.09.933-15.092,1.526-3.476.424-6.952.848-10.429,1.441a48.788,48.788,0,0,0-18.229,7.292A110.275,110.275,0,0,0,65.1,133.693c-3.476,2.883-6.613,6.1-10.09,8.9a55.855,55.855,0,0,1-21.875,10.853,1.734,1.734,0,0,1-.933,0c3.222-1.441,6.613-2.628,9.835-4.239A55.776,55.776,0,0,0,56.449,138.95a140.619,140.619,0,0,1,24.164-18.907c.678-.424,1.272-1.1,2.2-.594.085.933-1.357.678-1.187,2.035a97.978,97.978,0,0,1,12.718-4.578c-2.035-1.1-3.561-.254-5.172.17-2.2.594-4.07,2.035-6.359,2.374.17-.848.933-1.1,1.611-1.357a57.877,57.877,0,0,1,17.975-4.578c7.461-.848,15.007-1.1,22.3-2.968.424-.085,1.272-.678,1.441.085.254.933-.763.678-1.272.848-.933.254-1.865.509-2.883.763-.085,0-.17.17-.254.254C122.158,113.514,123.091,113.005,123.685,113.344Z" transform="translate(-4.691 -16.857)"/>
        <path id="Path_92" data-name="Path 92" class="cls-1" d="M157.035,106.4c1.017.424.848,1.272.678,2.035a105.366,105.366,0,0,0-5.85,10.429c-2.289,5.426-4.578,10.853-6.868,16.194a31.068,31.068,0,0,1-4.748,8.309c-3.476,4.155-8.055,5.765-13.311,5.511a52.277,52.277,0,0,1-11.955-2.289c-5.681-1.611-11.361-3.222-17.381-3.476.17-2.035,1.781-1.865,3.052-1.7a58.548,58.548,0,0,1,6.7,1.357c4.578,1.1,8.987,2.544,13.651,3.307a31.347,31.347,0,0,0,7.546.254c-.678-.339-.933-.424-1.272-.594a33.388,33.388,0,0,0,3.985-.848c5.681-1.611,8.9-5.765,11.277-10.768,3.052-6.274,5.087-12.972,7.885-19.331,1.187-2.713,2.459-5.342,3.646-8.055.763-1.017.933.424,1.441.339a108.3,108.3,0,0,0-7.716,17.975,2.684,2.684,0,0,0,.678-1.017c1.441-3.561,3.137-7.122,4.833-10.6C154.407,111.059,156.1,108.939,157.035,106.4Zm-11.107,23.147c-2.883,6.783-5.935,13.481-13.227,16.957C141.1,143.956,143.046,136.325,145.928,129.542Z" transform="translate(-14.64 -16.267)"/>
        <path id="Path_93" data-name="Path 93" class="cls-1" d="M259.9,88.119c.17-1.1.848-1.272,1.781-1.1a5.176,5.176,0,0,0,2.968,1.441c.085-1.1.339-2.12-.254-3.137,1.017-1.1,2.459-1.526,3.646-2.374a.724.724,0,0,1,1.1.085c.763,1.441,1.272.339,1.357-.254.339-2.459,2.374-2.289,3.985-2.8a3.69,3.69,0,0,0,2.2,2.883c.085.17.085.339.17.509-.085-.17-.085-.339-.17-.424-.678-.933-.848-2.289-1.865-3.052,0-.763.424-.678.848-.339a4.359,4.359,0,0,1,1.526,2.2c1.1,2.544,2.035,5.172,3.222,7.716.848,1.781-.339,3.307-.339,5a.662.662,0,0,1-.339.339c-.424,0-.594-.424-.678-.763-.678-2.035-1.272-3.985-1.865-6.02a5.936,5.936,0,0,0-3.391-3.476c-.085,3.391.085,6.7-1.357,9.92a7.813,7.813,0,0,1-1.1-4.833,7.033,7.033,0,0,0-1.526-4.833c-.339-.509-.678-1.1-1.441-.933s-.763.848-.848,1.441c-.17,1.017-.17,1.95-.339,2.968a6.236,6.236,0,0,0,.848,4.239c1.1,1.95,2.289,3.9,1.95,6.274-.424.254-.678.085-.763-.17-1.95-4.155-4.494-7.716-8.648-10C260.154,88.627,260.07,88.373,259.9,88.119Zm15.346-3.985c-.254-.763-.509-1.526-1.441-1.7a.662.662,0,0,0-.339.339C273.635,83.71,274.568,83.795,275.246,84.134Z" transform="translate(-39.332 -12.15)"/>
        <path id="Path_94" data-name="Path 94" class="cls-1" d="M201.694,46.086c-1.017-.509-1.865-.594-1.95.933a1.666,1.666,0,0,1-2.289,1.441A1.858,1.858,0,0,1,196.606,46a5.221,5.221,0,0,0,.339-3.815A12.335,12.335,0,0,0,195,48.544c-.085.678.424,1.865-1.187,1.526-.594-.085-.763,1.357-1.7,1.357a27.666,27.666,0,0,1,.933-9.5c.254-.848-.254-1.865-.509-2.883-.424-1.95-.933-3.815-1.357-5.765a2.614,2.614,0,0,1,.17-1.95c.763-1.272,1.1-1.187,2.289-.085a20.762,20.762,0,0,1,5.426,9.666c.085.339.254.763.678.763s.594-.424.763-.763a39.065,39.065,0,0,1,3.052-4.578C203.474,39.727,201.694,42.779,201.694,46.086Zm-7.8-8.733a10.8,10.8,0,0,0-1.78-3.731c.678,2.2.509,4.663,2.035,6.613C195.589,39.557,195.5,38.879,193.893,37.352Z" transform="translate(-28.86 -4.71)"/>
        <path id="Path_95" data-name="Path 95" class="cls-1" d="M276.673,15.577c-2.2.848-4.748.424-6.868,1.441a1.89,1.89,0,0,1-1.781,0c-.339-.594-.594-1.272-1.441-1.357-.339.678-.085,1.441-.254,2.12a2.6,2.6,0,0,1-2.035.678,7.226,7.226,0,0,1,.254-2.713c.678-2.713,1.357-5.511.763-8.394a3.05,3.05,0,0,1,.424-2.628c.254,1.781,2.459,2.374,2.035,4.663-.339,2.035,1.187,3.731,1.865,5.511.085.085.339.254.424.17.424-.17.339-.594.339-.933a54.012,54.012,0,0,1,.509-8.309c.339-1.865.509-3.731,1.611-5.426.933,4.663-.085,9.411,1.017,14.075A58.4,58.4,0,0,0,274.977.909,4.129,4.129,0,0,1,275.4,3.2c0,.254,0,.594.339.509.17-.085.339-.424.509-.678a21.534,21.534,0,0,1,.17,11.361C276.5,14.814,276.588,15.238,276.673,15.577Zm-4.833-3.222c.085,0,.17.085.254.085V6.674h-.254Z" transform="translate(-39.995 -0.146)"/>
        <path id="Path_96" data-name="Path 96" class="cls-1" d="M247.2,95.151c2.374-1.272,4.748-2.628,7.037-3.9.424-.254.763-.424,1.187-.085.085.509-1.1.763-.424,1.357s.678-.339,1.1-.594a1.091,1.091,0,0,1,1.017-.085c4.494,2.459,7.631,5.935,8.563,11.022.17.848.848,2.2-.085,2.544-.933.254-.933-1.272-1.272-2.035-1.1-2.2-2.035-4.409-4.155-6.189-.085,1.526,1.187,2.628.678,4.155-1.357-.763-1.187-2.628-2.544-3.222a8.267,8.267,0,0,0-.424-.933.98.98,0,0,0,.17,1.1,14.838,14.838,0,0,1,.424,6.952c-.085.509,0,1.357-.594,1.441-.678.085-.678-.678-.848-1.187a35.543,35.543,0,0,1-.933-4.324c-.594-2.459-2.12-4.578-3.307-6.783a1.31,1.31,0,0,0-1.526-.678c-.848.254-1.017,1.017-1.017,1.781a17.821,17.821,0,0,1,.254,4.239c0,.254-.17.424-.254.848-.933-.848-.933-1.95-1.272-2.883C248.472,96.592,248.472,95.49,247.2,95.151Zm15.686,3.307c0-.085-.085-.085-.085-.17v.085c0,.085,0,.085.085.085a4.488,4.488,0,0,0,1.1,1.95C263.9,99.56,263.818,98.8,262.886,98.458Zm-.594-.848a1.266,1.266,0,0,0-1.1-1.187A1.351,1.351,0,0,0,262.292,97.61Zm2.2,3.815c0,.085-.085.17-.085.254a.083.083,0,0,1,.085.085c0-.085.085-.17.085-.254Z" transform="translate(-37.4 -13.925)"/>
        <path id="Path_97" data-name="Path 97" class="cls-1" d="M241.568,27.868c-1.1,1.526-3.137,1.187-4.578,2.12a37.507,37.507,0,0,1-5.342,2.289,71.728,71.728,0,0,0-4.409-13.057,4.2,4.2,0,0,1-.339-1.1c0-.254,0-.678.17-.848.339-.339.678.085.933.339.509.424.509,1.1,1.357,1.357.594-1.017.17-2.289.509-3.391.17-.678,0-1.611,1.272-1.1,1.017.424.509-1.1,1.357-1.272,1.272,1.272,1.017,3.052.763,4.578-.339,2.713-.339,5.426-.424,8.14-.678-.678-.509-1.611-.848-2.374.085,2.289-.17,4.578,1.781,6.359h-.085c-.424-1.017-.17-2.2-.424-3.307,1.017.254,1.357,1.357,2.12,1.95.339.254.594.678,1.1.424a.994.994,0,0,0,.424-.933c.085-1.017.17-2.12.254-3.137,0-.339.085-.678.509-.678s.509.339.594.594a4.78,4.78,0,0,1,.339,1.017C238.855,27.783,239.618,28.716,241.568,27.868Z" transform="translate(-34.311 -2.093)"/>
        <path id="Path_98" data-name="Path 98" class="cls-1" d="M287.94,14.938c.254-1.272-.594-2.459-.509-3.815a2.78,2.78,0,0,0-1.187,1.865c-1.017,3.476-3.052,4.239-6.444,2.628,3.307.254,4.155-1.526,4.324-4.494.17-2.2,1.187-4.409,1.781-6.529.085-.254.085-.594.509-.678,1.187-.17,1.1-.17,1.611-1.1.594-1.272,2.289-1.441,2.968-2.713a34.039,34.039,0,0,1-1.357,8.309c0,.085-.085.254-.085.339-.339,1.187-1.357,2.713-.594,3.646.678.848,1.865-.678,2.967-.763.509,0,1.017-.509,1.7.085A10.655,10.655,0,0,1,287.94,14.938Z" transform="translate(-42.359 -0.1)"/>
        <path id="Path_99" data-name="Path 99" class="cls-1" d="M237.452,106.557c1.357-1.187.339-2.459-.085-3.561-.339-.763-.933-1.272-.678-2.2,0-.085.339-.254.424-.254a2.311,2.311,0,0,1,1.441,1.95,7.738,7.738,0,0,0,.933,2.2c-.678-3.391-.594-6.274,3.391-7.292-.763,1.272.17,2.289.678,3.222a27.092,27.092,0,0,0,2.2,4.07c1.441,1.865.848,4.07,1.187,6.1.085.509-.085.933-.678.933-.424.085-.509-.424-.678-.763-.933-2.374-1.7-4.918-3.646-6.783a7.915,7.915,0,0,0-1.272-1.1c-.509-.339-1.017,0-.763.509,1.272,2.035-.593,3.815-.509,5.765a37.57,37.57,0,0,1-.254,5.342C236.774,112.492,237.537,109.44,237.452,106.557Zm4.663-4.578a3.422,3.422,0,0,0-.17-2.289c-.085-.17-.509-.085-.594.17C241.013,100.622,241.267,101.215,242.115,101.978Zm.763.678h-.17v.17a.312.312,0,0,0,.254-.085C242.963,102.826,242.963,102.742,242.878,102.657Z" transform="translate(-35.791 -14.903)"/>
        <path id="Path_100" data-name="Path 100" class="cls-1" d="M191.6,119.894c1.357-1.1,2.883-.254,4.324-.594a9.413,9.413,0,0,0,1.526,6.359,6.446,6.446,0,0,1,.933,2.8c0,.339,0,.763-.424.933-.509.17-.594-.254-.763-.594-.424-.678-.933-1.272-1.526-2.2-.594,2.968,1.1,5.257.678,7.8a9.01,9.01,0,0,1-2.628-6.613c.085-2.544.254-5-1.017-7.376-1.526,4.918.339,10.344-2.628,15.007a7.793,7.793,0,0,1-.509-3.646c-.085-3.646-.085-7.292-.085-10.853-.339-1.611.339-1.526,1.441-1.017-1.017,4.324-.594,8.733-.594,13.057C191.773,128.711,190.671,124.218,191.6,119.894Z" transform="translate(-28.606 -18.234)"/>
        <path id="Path_101" data-name="Path 101" class="cls-1" d="M202.793,117.5c.254-.763.594-1.272,1.441-1.1-.848.763-.424,1.441.17,2.035,1.441,1.611,2.968,3.137,4.324,4.833a7.651,7.651,0,0,1,1.95,6.613c-1.357-1.7-2.035-3.561-3.391-4.833-1.441-1.272-2.883-2.544-4.578-4.07-.17,4.578.763,8.818.17,13.057-.593-1.357-1.7-2.459-1.357-4.155.085-.424-.254-1.017-.424-1.526-1.441-3.222-1.272-6.529-.763-9.92,1.1-.339,1.441.933,2.289,1.1,1.7,1.272,2.968,2.968,4.833,4.07.085.17.17.254.254.424l.17-.17c-.17-.085-.254-.17-.424-.17-.254-.848-1.017-1.357-1.526-2.035C204.828,120.21,203.3,119.192,202.793,117.5Z" transform="translate(-30.214 -17.787)"/>
        <path id="Path_102" data-name="Path 102" class="cls-1" d="M251.74,23.542c-.678,1.1-2.035,1.017-2.967,1.7-.339.254-.763-.17-.933-.594-.509-1.272-1.187-1.526-1.95-.17-.085.17-.339.339-.509.509-3.9-3.815-3.391-9.327-5.681-13.9,1.187-.339,2.459,3.476,2.8-.678,1.357,1.7,1.187,3.391,1.7,5,.424,1.611.509,3.222,2.628,3.9,1.1.339,1.865,1.865,2.713,2.8A3.638,3.638,0,0,0,251.74,23.542Z" transform="translate(-36.259 -1.667)"/>
        <path id="Path_103" data-name="Path 103" class="cls-1" d="M76.418,155.324c-1.017,2.12-2.713,3.646-4.155,5.342-4.748,5.765-9.666,11.277-16.449,14.668a43.615,43.615,0,0,1-14.159,3.985c-6.189.678-12.464.339-18.653,1.611a1.772,1.772,0,0,1-1.1-.17c1.865-1.017,3.9-1.1,5.935-1.357,5.257-.678,10.6-.593,15.855-1.357a37.059,37.059,0,0,0,23.316-12.888c2.628-3.052,5.172-6.1,7.8-9.157.339-.424.594-.933,1.187-1.1C76.163,155.07,76.248,155.239,76.418,155.324Z" transform="translate(-3.124 -23.651)"/>
        <path id="Path_104" data-name="Path 104" class="cls-1" d="M288.8,72.313c1.526-.933,2.968-1.865,4.494-2.713a55.209,55.209,0,0,0,7.461,9.072,6.324,6.324,0,0,1,.763,1.272.645.645,0,0,1,0,.848c-.254.254-.594.085-.848-.085a2.576,2.576,0,0,0-.594-.424c-.424-.254-.763-.763-1.272-.509-.594.339-.339,1.017-.17,1.526a5.994,5.994,0,0,1-.17,3.646c-2.2-3.052-2.628-6.868-4.663-9.92-.424.17-.339.424-.339.678-.085.424.254,1.017-.254,1.187-.594.17-.848-.424-1.1-.848C291.089,74.687,290.5,73.076,288.8,72.313Zm6.868,4.663c.594,1.441,1.1,2.968,1.7,4.409A4.415,4.415,0,0,0,295.668,76.976Z" transform="translate(-43.728 -10.673)"/>
        <path id="Path_105" data-name="Path 105" class="cls-1" d="M301.47,28.642c-.763-.594-.848-1.526-1.187-2.289l1.017-1.272a10.762,10.762,0,0,0,3.307-5.342c.17-.509.339-1.187,0-1.611-.509-.594-1.017.085-1.441.254-1.781.509-3.222,1.7-5.087,2.035.594-1.7,2.883-1.357,3.646-2.8-.424-.339-.678,0-.933.085-2.289.678-4.07,2.374-6.1,3.561-.509.085-.933.085-1.187-.509,1.526-.254,2.459-1.357,3.646-2.12a19.519,19.519,0,0,1,6.02-2.8c1.357-.339,2.12-.848,2.035-2.289a2.03,2.03,0,0,1,.848-1.95c.678.678.085,1.95.594,2.374,1.441,1.1.424,2.12.339,3.307a13.083,13.083,0,0,1-4.578,9.5A2.37,2.37,0,0,0,301.47,28.642Z" transform="translate(-44.443 -1.85)"/>
        <path id="Path_106" data-name="Path 106" class="cls-1" d="M74.5,156.139a73.759,73.759,0,0,1-8.818,10.344c-7.461,7.631-16.788,11.277-27.3,11.446-3.9.085-7.716,1.272-11.785.763a2.636,2.636,0,0,1,2.12-.848c4.748-.509,9.5-.594,14.159-1.187A36.743,36.743,0,0,0,64.33,166.4a107.588,107.588,0,0,0,8.309-9.242c.424-.509.678-1.187,1.441-1.357A.846.846,0,0,0,74.5,156.139Z" transform="translate(-3.839 -23.787)"/>
        <path id="Path_107" data-name="Path 107" class="cls-1" d="M223.3,37.177c-1.95.254-3.307,1.95-5.087,2.544a7.586,7.586,0,0,1-2.2.763c.763-5.172-2.883-8.9-4.409-13.311,1.7,1.017,2.544,2.883,4.07,4.324.678-1.865,0-3.646.848-5.6.424,2.035.933,3.646.763,5.257a5.879,5.879,0,0,0,2.459,5.426c.424-.424-.254-1.187.339-1.441.678-.254,1.017.509,1.441.848A8.15,8.15,0,0,0,223.3,37.177Z" transform="translate(-31.984 -4.025)"/>
        <path id="Path_108" data-name="Path 108" class="cls-1" d="M305,54.159a1.832,1.832,0,0,1,.848-1.865c1.441-.339,2.289,1.272,4.155,1.357-1.526-1.1-2.713-1.95-3.9-2.713-.339-1.526.085-3.052.17-4.494.085-1.187,1.017-.933,1.7-1.1l.085.085a.083.083,0,0,1-.085-.085c.424-.424,1.017-.763.339-1.441,2.883,1.187,5.935.339,8.987.509-2.544,1.441-5.087,2.459-8.055,2.035-.933-.085-2.12-.594-2.459.848-.339,1.272-.763,2.713.848,3.561,2.968,1.7,5.681,3.9,8.987,5.087.594.17,1.611.339,1.357,1.187-.17.763-1.187.424-1.865.424-3.137-.339-5.765-2.035-8.479-3.561C306.693,53.4,305.845,53.057,305,54.159Zm9.92,2.035a1.918,1.918,0,0,0-1.95-.678C313.561,56.109,313.985,56.533,314.917,56.194Zm-3.731-1.7a.846.846,0,0,0,.339.424c.254.085.678.678.763,0A.849.849,0,0,0,311.187,54.5Z" transform="translate(-46.19 -6.764)"/>
        <path id="Path_109" data-name="Path 109" class="cls-1" d="M301.9,62.37a6.7,6.7,0,0,1,2.035-4.07c2.883,2.12,5.257,4.833,7.97,7.122,1.7,1.357,3.476,2.713,5.511,4.324-2.459.17-3.9-1.017-5.426-1.865a18.006,18.006,0,0,1-3.222-2.459c-1.781-1.611-3.646-3.137-6.359-2.713C302.324,62.709,302.07,62.455,301.9,62.37Z" transform="translate(-45.721 -8.954)"/>
        <path id="Path_110" data-name="Path 110" class="cls-1" d="M214.161,41.229c-1.272.763-2.289.848-2.459-1.357-.593,1.187.848,2.544-.763,3.052-1.017.339-1.611,1.272-2.8,1.272-.254-4.239,0-8.479.085-12.718h.509v6.1c.848.17.848-.254.933-.509,0-3.137.085-6.274-1.526-9.157-.17-.254-.593-.594-.085-.933a.809.809,0,0,1,1.017.254,6.817,6.817,0,0,1,.763,2.2c.678,2.8.933,5.765,2.12,8.733.509-1.017-.17-1.95.424-3.052C213.737,37.074,212.635,39.618,214.161,41.229Z" transform="translate(-31.408 -4.177)"/>
        <path id="Path_111" data-name="Path 111" class="cls-1" d="M184.572,118.6c2.2-.085.848,1.781,1.441,2.713.848-.17.509-1.1,1.1-1.611.678,1.017.254,2.035,0,2.968s-.509,1.781.339,2.459a8.568,8.568,0,0,1,.254,1.441c0,.763.17,1.7-.509,2.035-.848.509-1.017-.848-1.781-1.017a47.314,47.314,0,0,1-2.883,6.359c-.17.424-.424,1.017-1.017.848s-.424-.848-.424-1.272c.339-2.713,2.035-5.087,2.628-7.631C184.487,123.432,185.59,121.058,184.572,118.6Z" transform="translate(-27.339 -18.128)"/>
        <path id="Path_112" data-name="Path 112" class="cls-1" d="M125.6,151.911c.254.17.593.254,1.272.594a36.393,36.393,0,0,1-7.546-.254c-4.663-.763-9.072-2.2-13.651-3.307a58.547,58.547,0,0,0-6.7-1.357c-1.272-.17-2.883-.339-3.052,1.7a14.087,14.087,0,0,0-8.563,3.561c-.254.254-.678.424-.509.848h0a1.041,1.041,0,0,1-.17-1.1c2.289-2.459,5.511-3.222,8.563-4.409-.593-.763-1.7-.17-1.865-1.187,1.611-.085,3.307.254,4.918-.254h.17l.17-.17c.254-.085.509-.085.678-.17.085.678.509.763,1.1.678,1.526.339,3.052.594,4.494.933,5.935,1.272,11.7,3.391,17.805,3.9.17.17.254.17.424,0Z" transform="translate(-12.966 -22.357)"/>
        <path id="Path_113" data-name="Path 113" class="cls-1" d="M170.688,64.456c-.763.424-1.1,1.526-2.289,1.187-1.441-.509-2.035-1.865-3.052-2.883a52.154,52.154,0,0,1-5.935-7.037,2.578,2.578,0,0,1-.424-.594c-.339-.678-1.017-1.441-.339-1.95.594-.424,1.187.424,1.611.848,2.713,2.883,5.426,5.765,8.055,8.563A9.14,9.14,0,0,0,170.688,64.456Z" transform="translate(-23.884 -8.158)"/>
        <path id="Path_114" data-name="Path 114" class="cls-1" d="M184.96,55.583a2.966,2.966,0,0,1-4.239-.339c-.424-.509-.339-1.526-1.441-1.272-3.052-3.222-4.324-7.207-5.087-11.446-.085-.339-.085-.848.339-.933.424-.17.678.254.763.594,1.7,4.155,5,7.461,6.613,11.616A2.663,2.663,0,0,0,184.96,55.583Z" transform="translate(-26.286 -6.407)"/>
        <path id="Path_115" data-name="Path 115" class="cls-1" d="M162.329,76.314a12.959,12.959,0,0,1-.678,4.409,19.391,19.391,0,0,0-.594,3.052c-.085.509-.17,1.017-.848,1.017a1.135,1.135,0,0,1-1.187-.678c-.17-.678.763-.424.933-1.017-.933-.678-2.035-.085-2.968-.509a3.144,3.144,0,0,1,1.95-.254c.848,0,1.611-.17,1.95-1.017a2.2,2.2,0,0,0-.339-2.544,14.219,14.219,0,0,0-7.037-4.494c-.254-.085-.593-.17-.848-.254-.339-.17-.763-.254-.763-.763,0-.424.509-.509.848-.593a8.32,8.32,0,0,1,6.02,1.017A8.521,8.521,0,0,1,162.329,76.314Z" transform="translate(-22.901 -11.113)"/>
        <path id="Path_116" data-name="Path 116" class="cls-1" d="M229.3,105.34c2.12-2.035,2.12-2.035,2.883.678a11.462,11.462,0,0,0,.933,2.883c.593-.17.17-.848.593-1.017a9.21,9.21,0,0,1,1.272,3.9c-.848.254-.763-.763-1.357-.848a.648.648,0,0,0-.17.424l-.509,5.342c-.085.594.17,1.441-.594,1.526-.678,0-.763-.933-.848-1.441-.254-1.611-.509-3.222-.678-4.918C230.4,109.664,230.572,107.375,229.3,105.34Z" transform="translate(-34.676 -15.89)"/>
        <path id="Path_117" data-name="Path 117" class="cls-1" d="M171.061,112.1c.509,1.187,2.374,1.1,2.544,2.628h0c-.594,0-.763.424-1.1.763-.933.933-1.611,2.12-2.968,2.544-.594-.763.848-.933.339-1.865-1.78,1.441-2.883,3.476-4.409,5.087-.509.509-.933,1.1-1.526,1.611a.664.664,0,0,1-.678.085c-.254-.085-.254-.339-.17-.593,2.2-3.561,4.324-7.292,7.546-10.174A.764.764,0,0,1,171.061,112.1Z" transform="translate(-24.596 -17.139)"/>
        <path id="Path_118" data-name="Path 118" class="cls-1" d="M174.088,115.18c1.526-.424,2.713.424,3.815,1.272a3.16,3.16,0,0,0-3.137,1.441c-2.12,2.544-4.833,4.409-7.376,6.359-.254.17-.509.594-.933.254-.254-.254-.339-.509-.085-.763,1.1-1.526,2.289-2.968,3.391-4.494a5.993,5.993,0,0,0,4.324-4.07Z" transform="translate(-25.08 -17.591)"/>
        <path id="Path_119" data-name="Path 119" class="cls-1" d="M190.564,54.042c-1.357.678-2.713,1.357-3.985,2.035.085-2.2-1.526-3.815-1.95-5.85-.17-1.1-.594-2.12-.848-3.222-.085-.339-.254-.763.17-1.017.509-.254.763.254.933.594,1.187,2.035,2.374,4.07,3.476,6.1A2.182,2.182,0,0,0,190.564,54.042Z" transform="translate(-27.735 -7.071)"/>
        <path id="Path_120" data-name="Path 120" class="cls-1" d="M285,79.539c.594-.085,1.1-.254,1.7-.339a3.59,3.59,0,0,1,1.017,2.544c.17,2.8.17,5.511.254,8.309,0,.424.085,1.017-.424,1.1-.594.085-.763-.509-.848-1.017A19.566,19.566,0,0,1,286.441,87C286.272,84.457,285.339,82.083,285,79.539Z" transform="translate(-43.15 -12.134)"/>
        <path id="Path_121" data-name="Path 121" class="cls-1" d="M176.074,61.3c-.254.509-.763.594-1.272.763-1.865-4.409-2.713-9.242-5-13.566,4.07,3.052,4.748,7.885,6.7,12.04-1.865-1.7-2.2-4.239-3.391-6.274h0C173.87,56.64,174.039,59.353,176.074,61.3Z" transform="translate(-25.624 -7.463)"/>
        <path id="Path_122" data-name="Path 122" class="cls-1" d="M307.7,40.622v-.339c2.374-.509,4.494,1.187,7.376.763a30.45,30.45,0,0,1-5.935-1.95c-.085-.424-.254-.763-.339-1.187.424-.424,1.1-.763,1.441-.254,1.7,2.289,4.239,2.12,6.529,2.459.848.17,2.2-.509,2.374.17.17,1.1-1.357,1.187-2.2,1.441C313.72,42.657,310.668,41.894,307.7,40.622Z" transform="translate(-46.604 -5.774)"/>
        <path id="Path_123" data-name="Path 123" class="cls-1" d="M255.665,22.114h0c-1.187-2.035-1.441-4.409-2.2-6.613-.509.254.085,1.017-.594,1.1a.55.55,0,0,1-.424-.509A44.612,44.612,0,0,0,249.9,7.7a4.069,4.069,0,0,1,2.374,1.95c1.865,3.731,2.628,7.8,3.646,11.785A3.491,3.491,0,0,1,255.665,22.114Z" transform="translate(-37.81 -1.256)"/>
        <path id="Path_124" data-name="Path 124" class="cls-1" d="M229.352,35.442c-.848.848-2.12.678-3.052,1.187.763-3.391.763-6.952,1.1-10.429a17.9,17.9,0,0,1,1.187,6.274C228.589,33.576,228.5,34.679,229.352,35.442Z" transform="translate(-34.22 -4.071)"/>
        <path id="Path_125" data-name="Path 125" class="cls-1" d="M224.5,107.226a10.149,10.149,0,0,0,2.628-1.526c0,1.781,1.187,3.222,1.272,4.918a9.738,9.738,0,0,1-.085,3.815C226.789,111.974,227.128,108.752,224.5,107.226Z" transform="translate(-33.946 -16.165)"/>
        <path id="Path_126" data-name="Path 126" class="cls-1" d="M165.185,73.03c-.509.848-.933,1.7-1.441,2.544-1.187-2.035-3.222-2.8-5.087-3.985-.424-.254-1.1-.254-1.357-.933,1.865-.678,3.391.17,5,.933C163.235,72.1,164,73.114,165.185,73.03Z" transform="translate(-23.723 -10.796)"/>
        <path id="Path_127" data-name="Path 127" class="cls-1" d="M234.257,28.452c.254,1.1-.085,2.2.424,3.307h0c-1.95-1.781-1.7-4.155-1.781-6.359.339.763.254,1.7.848,2.374A2.04,2.04,0,0,1,234.257,28.452Z" transform="translate(-35.224 -3.949)"/>
        <path id="Path_128" data-name="Path 128" class="cls-1" d="M286.491,77.77c-.678.085-1.1-.339-1.611-.678-1.017-.933-.848-1.781.339-2.374L287,73.7C286.237,76.159,286.237,76.159,286.491,77.77Z" transform="translate(-43.03 -11.297)"/>
        <path id="Path_129" data-name="Path 129" class="cls-1" d="M174.709,115.1a5.968,5.968,0,0,1-4.409,4.07,3.011,3.011,0,0,1,.339-.763c1.357-.509,2.035-1.611,2.968-2.544C173.946,115.609,174.115,115.1,174.709,115.1Z" transform="translate(-25.7 -17.596)"/>
        <path id="Path_130" data-name="Path 130" class="cls-1" d="M120,100.409a8.184,8.184,0,0,1,5.681,0Z" transform="translate(-18.048 -15.283)"/>
        <path id="Path_131" data-name="Path 131" class="cls-1" d="M255.371,24.533a1.225,1.225,0,0,1-.594.17,8.6,8.6,0,0,1-1.187-5A12.342,12.342,0,0,1,255.371,24.533Z" transform="translate(-38.364 -3.082)"/>
        <path id="Path_132" data-name="Path 132" class="cls-1" d="M83.1,154.128c0-.254.085-.424.085-.678a8.157,8.157,0,0,0,2.544-1.95c.17.594.254,1.1.424,1.7-1.1-.085-1.611.678-2.2,1.357C83.27,155.146,83.185,154.637,83.1,154.128Z" transform="translate(-12.434 -23.133)"/>
        <path id="Path_133" data-name="Path 133" class="cls-1" d="M297.988,68.9c.509.424,1.1.17,1.611,0,.085.763.17,1.611.254,2.374,0,.339.085.848-.339.933s-.594-.339-.763-.678A3.439,3.439,0,0,1,297.988,68.9Z" transform="translate(-45.116 -10.567)"/>
        <path id="Path_134" data-name="Path 134" class="cls-1" d="M245.7,29.491a6.59,6.59,0,0,1-1.357.17c.424-1.187-.509-2.2-.254-3.561C245.279,27.117,245.279,28.389,245.7,29.491Z" transform="translate(-36.92 -4.056)"/>
        <path id="Path_135" data-name="Path 135" class="cls-1" d="M19.2,184.087c1.357-1.272,3.137-1.017,4.833-1.187a10.446,10.446,0,0,1-4.833,1.187Z" transform="translate(-2.713 -27.91)"/>
        <path id="Path_136" data-name="Path 136" class="cls-1" d="M148.91,108.786c-.17,1.017-1.017,1.1-1.781,1.357a.779.779,0,0,1-.848-.17c-.254-.339,0-.594.339-.678A3.178,3.178,0,0,1,148.91,108.786Z" transform="translate(-22.031 -16.623)"/>
        <path id="Path_137" data-name="Path 137" class="cls-1" d="M211,30.4a6.29,6.29,0,0,1,1.272,2.8C211.339,32.944,211.254,32.859,211,30.4Z" transform="translate(-31.892 -4.71)"/>
        <path id="Path_138" data-name="Path 138" class="cls-1" d="M258.482,91.878a.9.9,0,0,0-1.017.085c-.339.17-.424,1.187-1.1.593s.509-.848.424-1.357h0a.9.9,0,0,0,1.017.085A4.246,4.246,0,0,1,258.482,91.878Z" transform="translate(-38.762 -13.959)"/>
        <path id="Path_139" data-name="Path 139" class="cls-1" d="M18.926,184.3c-.254.763-1.1.339-1.526.594.254-.763.933-.594,1.526-.594Z" transform="translate(-2.439 -28.12)"/>
        <path id="Path_140" data-name="Path 140" class="cls-1" d="M289.428,19.95c-1.526-.509-.933-1.187-.254-1.95C289.258,18.678,289.343,19.272,289.428,19.95Z" transform="translate(-43.678 -2.823)"/>
        <path id="Path_141" data-name="Path 141" class="cls-1" d="M257.912,91.048a1.091,1.091,0,0,1-1.017-.085c-.17-.763.424-.763.933-.763C257.827,90.454,257.912,90.794,257.912,91.048Z" transform="translate(-38.87 -13.807)"/>
        <path id="Path_142" data-name="Path 142" class="cls-1" d="M305.5,37.526A1.514,1.514,0,0,1,304.995,36C305.419,36.424,305.758,36.848,305.5,37.526Z" transform="translate(-46.188 -5.562)"/>
        <path id="Path_143" data-name="Path 143" class="cls-1" d="M307.511,37.982c-.509.254-1.1.509-1.611,0A3.443,3.443,0,0,1,307.511,37.982Z" transform="translate(-46.33 -5.848)"/>
        <path id="Path_144" data-name="Path 144" class="cls-1" d="M77.717,122.639a5.486,5.486,0,0,1-.763.678l-.254-.254a5.486,5.486,0,0,0,.678-.763A.662.662,0,0,1,77.717,122.639Z" transform="translate(-11.461 -18.691)"/>
        <path id="Path_145" data-name="Path 145" class="cls-1" d="M278.5,78.805c0-.678.509-.509.933-.509C279.263,78.721,278.924,78.805,278.5,78.805Z" transform="translate(-42.161 -11.994)"/>
        <path id="Path_146" data-name="Path 146" class="cls-1" d="M304.491,57.494c-.085-.254-.085-.509.17-.594C304.745,57.154,304.745,57.324,304.491,57.494Z" transform="translate(-46.108 -8.741)"/>
        <path id="Path_147" data-name="Path 147" class="cls-1" d="M173.624,65.992c0,.254-.17.339-.424.254C173.2,65.907,173.37,65.907,173.624,65.992Z" transform="translate(-26.142 -10.117)"/>
        <path id="Path_148" data-name="Path 148" class="cls-1" d="M175.02,64.995c0,.339-.17.424-.424.339C174.511,64.995,174.681,64.91,175.02,64.995Z" transform="translate(-26.351 -9.968)"/>
        <path id="Path_149" data-name="Path 149" class="cls-1" d="M223.5,107.834c.085-.339.254-.424.593-.339C224.009,107.834,223.839,107.918,223.5,107.834Z" transform="translate(-33.794 -16.434)"/>
        <path id="Path_150" data-name="Path 150" class="cls-1" d="M150.863,108.2c-.17.424-.424.424-.763.339A.921.921,0,0,1,150.863,108.2Z" transform="translate(-22.627 -16.546)"/>
        <path id="Path_151" data-name="Path 151" class="cls-1" d="M304.649,35.094a.438.438,0,0,1-.254-.594C304.649,34.67,304.733,34.839,304.649,35.094Z" transform="translate(-46.096 -5.333)"/>
        <path id="Path_152" data-name="Path 152" class="cls-1" d="M175.549,64.694c0,.17-.085.254-.254.17C175.21,64.694,175.294,64.609,175.549,64.694Z" transform="translate(-26.455 -9.922)"/>
        <path id="Path_153" data-name="Path 153" class="cls-1" d="M83.009,156.134c-.17-.085-.339-.254-.509-.339C82.839,155.71,83.009,155.795,83.009,156.134Z" transform="translate(-12.343 -23.782)"/>
        <path id="Path_154" data-name="Path 154" class="cls-1" d="M86.139,155.339,85.8,155h.424A.51.51,0,0,1,86.139,155.339Z" transform="translate(-12.845 -23.666)"/>
        <path id="Path_155" data-name="Path 155" class="cls-1" d="M174.17,65.6v.17H174V65.6Z" transform="translate(-26.263 -10.065)"/>
        <path id="Path_156" data-name="Path 156" class="cls-1" d="M86.694,154.852H86.1c.254-.509.424-.17.594,0Z" transform="translate(-12.891 -23.602)"/>
        <path id="Path_157" data-name="Path 157" class="cls-1" d="M287.9,73.349c0-.254.17-.339.424-.254C288.239,73.349,288.154,73.433,287.9,73.349Z" transform="translate(-43.592 -11.2)"/>
        <path id="Path_158" data-name="Path 158" class="cls-1" d="M303.86,33.339c-.254,0-.254-.17-.17-.339C303.86,33.085,303.86,33.17,303.86,33.339Z" transform="translate(-45.986 -5.105)"/>
        <path id="Path_159" data-name="Path 159" class="cls-1" d="M303.364,32.439c-.17,0-.254-.17-.17-.339C303.364,32.185,303.448,32.27,303.364,32.439Z" transform="translate(-45.913 -4.968)"/>
        <path id="Path_160" data-name="Path 160" class="cls-1" d="M138.409,115.939a3.672,3.672,0,0,0-.424.085,3.671,3.671,0,0,0-.085-.424h.424A.51.51,0,0,0,138.409,115.939Z" transform="translate(-20.771 -17.672)"/>
        <path id="Path_161" data-name="Path 161" class="cls-1" d="M258.2,89.96c0-.254.17-.254.339-.17C258.539,89.96,258.454,90.045,258.2,89.96Z" transform="translate(-39.073 -13.737)"/>
        <path id="Path_162" data-name="Path 162" class="cls-2" d="M275.55,48.43c-1.357,3.052-3.731,4.409-5.342,6.359a1.656,1.656,0,0,1-1.95.254,2.221,2.221,0,0,0-2.883,1.272c-.594,1.017-3.307,2.035-4.155,1.526-.678-.339-.339-.848.17-1.1a9.673,9.673,0,0,0,2.374-1.781c.509-.594.763-1.1.085-1.781a1.035,1.035,0,0,0-1.611.17c-1.1,1.272-3.222,2.035-2.374,4.494.339.933-1.1,1.441-1.781,1.781-1.781,1.017-3.476,2.12-5.85,1.7-1.781-.339-3.646.509-5.426,1.017-.594.17-1.272.678-1.781-.254-.424-.763-.933-1.272-.339-2.459,1.187-2.374,3.052-3.815,5.172-5.342-2.544.594-5.087,1.272-6.529,3.391A29.817,29.817,0,0,1,239.686,62c-.509.509-1.187,1.017-.509,2.035.763-.678,1.526-1.441,2.289-2.035.424-.339.933-1.017,1.441-.509.594.593-.085,1.187-.424,1.611-.678.763-1.441,1.526-2.2,2.289a5.369,5.369,0,0,0-1.357,2.2c-.763,2.459-3.052,2.968-5,1.1-.509-.424-.848-1.1-1.526-1.357-.593-.254-1.1-.594-1.7-.17s-.254.933,0,1.526c.509,1.187-.678,1.95-.763,2.883-.339,2.544-1.526,2.628-3.391,1.526a1.636,1.636,0,0,0-.848-.254c-.678,0-1.272.17-1.357.933s.339,1.1,1.1,1.1c1.1.085,2.713-.085,2.968.848.254,1.1-1.441.763-2.2,1.272a57.836,57.836,0,0,1-6.868,3.476,1.965,1.965,0,0,0-1.187,1.272,3.615,3.615,0,0,1-1.441,2.035c-.848-1.781-.339-3.9,1.441-6.02.509-.593,1.781-1.187.848-1.95s-1.95,0-2.628,1.017a10.486,10.486,0,0,0-1.7,5.426c-.085,2.2-1.441,3.052-3.222,3.561a9.555,9.555,0,0,1-2.713.424,2.64,2.64,0,0,0-2.544,1.441c-.509.933-1.357,1.95-2.2.085a1.744,1.744,0,0,0-1.611-1.017c-.848.085-.933.933-1.1,1.526a10.109,10.109,0,0,1-5,6.274c.509-2.035.848-3.815,1.357-5.511.254-.933.339-1.7-.678-1.865s-1.1.848-1.272,1.526a31.527,31.527,0,0,1-1.611,5.511c-.509,1.187-1.1,1.7-2.374.763a4.226,4.226,0,0,0-5.511.933c-.339.424-.678.763-1.187.339a3.851,3.851,0,0,0-2.713-1.017c-.678,0-.594-.678-.509-1.187a8.946,8.946,0,0,1,1.017-4.663c.339-.509.678-1.272,0-1.7-.763-.509-1.017.339-1.441.763a5.921,5.921,0,0,0-1.272,3.985,1.352,1.352,0,0,1-.339,1.017c-.424.254-.848-.254-1.017-.509a18,18,0,0,1-2.459-3.222c-1.781-3.307-4.155-6.444-3.391-10.514.509-2.628.509-5.681,3.9-6.529a.989.989,0,0,0,.509-.509c1.611-3.476,5-4.324,8.055-5.765.424-.17,1.017-.254,1.272-.763.339-.848.678-.678,1.357-.17,1.187.933,1.865.594,2.2-.848.424-1.611,1.781-2.035,2.883-.763A12.268,12.268,0,0,0,197.716,67c.763.339,1.441.593,1.865-.254.509-.933-.17-1.611-1.017-1.781a14.62,14.62,0,0,1-5.765-2.8,62.458,62.458,0,0,1,6.613-3.646,2.333,2.333,0,0,1,2.459.085,17.941,17.941,0,0,0,1.781.933c.594.254,1.187.594,1.781.17a1.438,1.438,0,0,0,.254-1.865c-.339-.763,0-1.1.594-1.441.509-.339,1.1-.678,1.7-.254.594.339.509.933.424,1.526-.17,1.7-1.272,3.052-1.526,4.748-.17.933-1.611.509-2.459.678-.424.085-1.187-.17-1.187.509,0,.594.678.933,1.272.848a51.585,51.585,0,0,0,6.274-1.357.893.893,0,0,0,.254-1.7,1.867,1.867,0,0,1-.848-2.035,5.258,5.258,0,0,0-.678-3.9c-.593-.848-.339-1.526.763-1.781a6.426,6.426,0,0,0,1.357-.509c1.187-.339,2.544-1.1,3.731-.17s1.441,4.578.763,5.85c-.424.763-.763.848-1.272,0-.254-.339-.593-.933-1.187-.593-.678.339-.17.848-.085,1.272a3.084,3.084,0,0,1-.509,2.968c-.593.933-.848,1.865.254,2.374s1.357-.678,1.526-1.357a3.254,3.254,0,0,1,2.035-2.289c1.187-.509,1.611-1.95,2.374-3.052a1.6,1.6,0,0,1,1.611-.933,17.388,17.388,0,0,0,5.087-.933c.594-.254,1.017-.509.848-1.187-.254-.763-.933-.594-1.357-.339a10.548,10.548,0,0,1-4.833,1.017,3.266,3.266,0,0,1-3.137-2.628c-.17-1.272.678-1.7,1.7-1.7.594,0,1.357-.933,1.781-.085a1.919,1.919,0,0,1-.085,2.2c-.763.848-.085,1.187.763,1.1A2.546,2.546,0,0,0,224,52.245c-.085-4.155,3.137-4.663,5.85-5.342,2.035-.509,3.137-2.2,5-2.713.254-.085.594-.339.848-.339,2.2-.339,3.815-2.035,5.6-2.8,3.476-1.441,6.529-3.815,10.259-4.833,1.357-.339,2.289-1.441,3.391-2.2.678-.509,1.272-1.187,1.187.424-.085,1.1,1.1,1.357,1.526,2.374a2.8,2.8,0,0,1-.848,3.731c-.424.424-1.357.933-.848,1.526.594.763,1.526.17,2.12-.254a5.116,5.116,0,0,0,1.526-5.087c-.848-2.713-.085-3.985,2.8-4.663,1.1-.254,1.781-1.526,3.137-1.272.594.085.933.085,1.272.678a1.758,1.758,0,0,0,2.8.763c1.441-.933,2.035,1.1,3.222.848a2.314,2.314,0,0,1-.848,2.12,13.046,13.046,0,0,0-1.017,1.1c-.424.509-1.187.848-.424,1.7.594.594,1.1.17,1.611-.17a10.906,10.906,0,0,0,1.781-1.611c.678-.848,1.187-.594,1.611.339,1.441,2.713,1.272,5.6,1.357,8.479a1.688,1.688,0,0,1-1.781,1.781,15.442,15.442,0,0,1-2.8-.085c-1.1-.254-2.459-.509-1.865-2.2a.779.779,0,0,0-.594-1.017c-.594-.17-3.646,1.781-3.731,2.459-.085,1.017.763,1.1,1.441,1.441A12.161,12.161,0,0,0,275.55,48.43ZM177.2,79.461c2.289-.763,2.713.594,2.883,2.289a9.925,9.925,0,0,1,.339,2.2c-.085.763.17,1.187,1.017,1.187.763,0,1.95-.339,1.865-.848-.509-1.865,1.017-2.289,1.781-3.222a1.04,1.04,0,0,0,.17-1.357.794.794,0,0,0-1.272,0c-1.1,1.357-1.611.678-2.289-.509C180.081,76.833,178.809,76.918,177.2,79.461Zm30.438,4.155c.678-2.544,1.017-5.172,3.307-6.868a.818.818,0,0,0,0-1.187.908.908,0,0,0-1.187.085,5.258,5.258,0,0,0-2.12,3.561,2.193,2.193,0,0,1-2.374,2.035,19.5,19.5,0,0,0-2.2.254c-.594.085-1.187.17-1.441.763-.339,1.017-1.187,2.374,0,3.052s1.526-.763,1.95-1.611c.594-1.187,1.865-1.441,2.968-1.611C207.382,81.92,206.873,83.107,207.636,83.616Zm30.1-31.71c.254.594,0,1.1.509,1.357.594.339.848-.339,1.187-.593.424-.424.763-.933,1.441-1.017,2.289-.17,3.815-1.611,5.087-3.307.339-.509,1.441-1.1.424-1.865-.848-.678-1.272.254-1.7.848-.933,1.1-1.7,2.289-3.052,2.883-.848.339-1.187.085-.933-.848.254-.848.424-1.7.678-2.459.085-.339,0-.678-.339-.763-.17,0-.593.085-.593.254A47.154,47.154,0,0,0,237.735,51.906Zm7.97-7.716c1.441,0,5.257-3.307,5.511-4.748a.927.927,0,0,0-.424-1.1.916.916,0,0,0-1.272.254,2.632,2.632,0,0,1-2.628,1.357c-.509-.085-.933.17-.678.763.933,1.865-.339,1.781-1.526,1.781-.339,0-.678-.085-.848.254-.17.424.085.678.339.933A2.367,2.367,0,0,0,245.705,44.19Zm-52.228,32.9a11.191,11.191,0,0,0-3.815,1.781c-.424.254-.848.593-.678,1.187.17.509.678.339,1.1.339,1.017-.085,1.526.339,1.526,1.357,0,.678,0,1.611.848,1.611,1.017,0,.763-1.017.848-1.7a2.5,2.5,0,0,0-.17-1.1c-.424-1.017-.254-1.611.848-2.035.424-.17.763-.424.594-.933C194.409,77.172,193.986,77.172,193.477,77.087Zm64.1-33.236c-1.272.594-1.7,1.781-2.289,2.968-.678,1.441-.848,3.052-1.7,4.494-.424.678-1.7,1.526-.509,2.289,1.017.594,1.357-.848,1.95-1.526a4.964,4.964,0,0,0,.848-1.441A44.092,44.092,0,0,1,257.575,43.851Zm-34.254,19.84c.509.254.848.17,1.017,0a18.843,18.843,0,0,1,5.257-3.646c.424-.254,1.187-.509.763-1.187-.424-.763-1.017-.509-1.611-.17A11.834,11.834,0,0,0,223.322,63.691Zm-39.51,6.7a4.827,4.827,0,0,0-2.12.339c-.339.17-.763.254-.763.678s.509.678.763.678c1.611-.085,2.968.593,4.409,1.017a.972.972,0,0,0,1.357-.594,1.075,1.075,0,0,0-.678-1.357A5.518,5.518,0,0,0,183.811,70.389ZM218.4,74.374a7.725,7.725,0,0,1,3.815-3.731c.848-.339,2.289-.678,1.7-1.95-.594-1.187-1.611.085-2.374.339C218.913,70.135,218.065,71.576,218.4,74.374Zm19.247-16.618a.808.808,0,0,0-.509-.594,1.011,1.011,0,0,0-1.187.339c-1.187,1.357-2.374,2.8-3.476,4.239a.693.693,0,0,0-.085,1.017c.424.424.763,0,1.1-.339,1.187-1.187,2.374-2.374,3.476-3.561A1.178,1.178,0,0,0,237.651,57.756ZM194.494,85.227c.848.424,1.441,0,2.035-.254,1.441-.593,2.2-1.95,3.307-2.968.339-.339.848-.678.254-1.187a1.075,1.075,0,0,0-1.526,0C197.207,82.259,195.936,83.786,194.494,85.227Zm10.853-17.551c0-.593-.085-1.187-.678-.763a7.977,7.977,0,0,0-3.391,3.307,1.05,1.05,0,0,0,.254,1.187.7.7,0,0,0,1.017.17A9.77,9.77,0,0,0,205.347,67.676Z" transform="translate(-26.07 -4.765)"/>
        <path id="Path_163" data-name="Path 163" class="cls-1" d="M157.782,105.674a5.079,5.079,0,0,1-2.968,1.7c-3.307,1.187-5.765,3.731-8.818,5.257-3.731,1.865-7.037,4.494-10.683,6.529-.594.339-1.357,1.1-1.95.254-.594-.763.254-1.272.763-1.611,2.544-1.95,5-4.155,8.055-5.172,2.544-.848,4.239-2.8,6.613-3.815,2.289-1.017,4.494-2.035,6.783-2.968A3.224,3.224,0,0,1,157.782,105.674Z" transform="translate(-20.05 -16.139)"/>
        <path id="Path_164" data-name="Path 164" class="cls-1" d="M166.027,106.286c-.933,2.544-2.628,4.663-3.815,7.122-1.7,3.476-3.391,7.037-4.833,10.6a2.684,2.684,0,0,1-.678,1.017,108.3,108.3,0,0,1,7.716-17.975C164.5,105.692,164.84,105.1,166.027,106.286Z" transform="translate(-23.631 -16.158)"/>
        <path id="Path_165" data-name="Path 165" class="cls-1" d="M191.751,120c-.933,4.324.17,8.818-1.272,13.142,0-4.409-.509-8.733.594-13.057A2.107,2.107,0,0,1,191.751,120Z" transform="translate(-28.753 -18.341)"/>
        <path id="Path_166" data-name="Path 166" class="cls-1" d="M242.233,81.181c-.509,0-.933-.085-.933-.424.254-1.1.424-2.289,1.611-2.883,1.017-.509,1.781.509,2.713.763.254.085.085.509-.085.594A27.9,27.9,0,0,1,242.233,81.181Z" transform="translate(-36.502 -11.911)"/>
        <path id="Path_167" data-name="Path 167" class="cls-1" d="M254.752,70.9c.17,1.357.424,2.289,1.95,2.374-1.781.933-3.815-.424-5,1.441C251.87,72.85,253.65,72.511,254.752,70.9Z" transform="translate(-38.084 -10.871)"/>
        <path id="Path_168" data-name="Path 168" class="cls-1" d="M207.863,123.72c-1.865-1.1-3.137-2.8-4.833-4.07-.085-.678-.933-1.441.17-1.95.509,1.7,2.035,2.713,3.052,3.985a9.47,9.47,0,0,1,1.611,2.035Z" transform="translate(-30.62 -17.991)"/>
        <path id="Path_169" data-name="Path 169" class="cls-1" d="M309,39.3a30.45,30.45,0,0,0,5.935,1.95c-2.883.424-5-1.272-7.376-.763-.254-.085-.509,0-.678-.17-.254-.254,0-.424.254-.509A8.825,8.825,0,0,0,309,39.3Z" transform="translate(-46.463 -6.064)"/>
        <path id="Path_170" data-name="Path 170" class="cls-1" d="M294.9,22.226c2.035-1.187,3.815-2.883,6.1-3.561.254-.085.509-.339.933-.085-.848,1.441-3.137,1.1-3.646,2.8h0A1.923,1.923,0,0,0,296,22.82,1.085,1.085,0,0,1,294.9,22.226Z" transform="translate(-44.656 -2.895)"/>
        <path id="Path_171" data-name="Path 171" class="cls-1" d="M264.713,86.5c.594,1.017.339,2.035.254,3.137A5.745,5.745,0,0,1,262,88.2,4.66,4.66,0,0,1,264.713,86.5Z" transform="translate(-39.651 -13.244)"/>
        <path id="Path_172" data-name="Path 172" class="cls-1" d="M306.342,52.1c1.187.848,2.374,1.7,3.9,2.713-1.781-.085-2.628-1.7-4.155-1.357A1.361,1.361,0,0,1,306.342,52.1Z" transform="translate(-46.348 -8.011)"/>
        <path id="Path_173" data-name="Path 173" class="cls-1" d="M266.6,20.62c.085-.678-.17-1.441.254-2.12.848.085,1.1.763,1.441,1.357C267.787,20.281,267.363,20.789,266.6,20.62Z" transform="translate(-40.351 -2.899)"/>
        <path id="Path_174" data-name="Path 174" class="cls-1" d="M277.339,80.1c1.017.763,1.187,2.035,1.865,3.052h0A3.69,3.69,0,0,1,277,80.27C277.17,80.1,277.254,80.1,277.339,80.1Z" transform="translate(-41.933 -12.271)"/>
        <path id="Path_175" data-name="Path 175" class="cls-1" d="M162.955,97.387H158.8c1.017-.424,2.289-.17,3.052-1.187C162.191,96.624,162.955,96.624,162.955,97.387Z" transform="translate(-23.951 -14.72)"/>
        <path id="Path_176" data-name="Path 176" class="cls-1" d="M296.2,23.336a1.993,1.993,0,0,1,2.289-1.441c-.424.848-1.272,1.1-2.035,1.526C296.37,23.591,296.2,23.591,296.2,23.336Z" transform="translate(-44.854 -3.411)"/>
        <path id="Path_177" data-name="Path 177" class="cls-1" d="M74.77,120.7a5.486,5.486,0,0,0-.678.763c-2.713,2.544-5.342,5.257-8.14,7.716-2.12,1.781-3.985,3.985-6.868,4.748L59,133.844c2.035-1.865,4.155-3.646,6.189-5.511,4.494-4.07,8.224-8.818,12.972-12.633,2.374-1.865,5.85-3.646,8.563-3.9C81.808,114.089,77.823,116.8,74.77,120.7Z" transform="translate(-8.768 -17.093)"/>
        <path id="Path_178" data-name="Path 178" class="cls-1" d="M56.184,139.994c-.509,0-.763-.085-.594-.254a.846.846,0,0,1,.424-.339,1.433,1.433,0,0,1,.424.17A1.24,1.24,0,0,0,56.184,139.994Z" transform="translate(-8.241 -21.292)"/>
        <path id="Path_179" data-name="Path 179" class="cls-1" d="M58.942,137.993c-.085.424-.254.678-.763.594-.085,0-.17-.254-.085-.254a.694.694,0,0,1,.848-.339Z" transform="translate(-8.625 -21.073)"/>
        <path id="Path_180" data-name="Path 180" class="cls-1" d="M100.268,145.577c-.254.085-.509.085-.678.17-.17-.254-.339-.17-.339.085a16,16,0,0,1-4.918.254c-.254-.085-.593-.17-.933-.254,2.883-1.441,5.681-2.968,8.479-4.324.678-.339,1.781-1.017,2.289.085.339.848-.509,1.526-1.272,2.035C101.963,144.39,100.692,144.39,100.268,145.577Z" transform="translate(-14.001 -21.534)"/>
        <path id="Path_181" data-name="Path 181" class="cls-1" d="M83.036,151.226a6.411,6.411,0,0,1-2.544,1.95c-2.713.254-5.172,1.441-7.631,2.374-2.459.848-4.918,1.781-7.461,2.544,6.02-2.883,12.209-5.257,18.483-8.394A10.073,10.073,0,0,0,83.036,151.226Z" transform="translate(-9.741 -22.859)"/>
        <path id="Path_182" data-name="Path 182" class="cls-1" d="M114.654,139.339A1.17,1.17,0,0,1,114.4,139c.17.085.254.085.424.17C114.739,139.254,114.739,139.339,114.654,139.339Z" transform="translate(-17.196 -21.232)"/>
        <path id="Path_183" data-name="Path 183" class="cls-1" d="M91.685,120.739c2.289-.339,4.155-1.781,6.359-2.374,1.526-.424,3.052-1.357,5.172-.17A97.981,97.981,0,0,0,90.5,122.774c-.17-1.357,1.272-1.1,1.187-2.035Z" transform="translate(-13.558 -17.978)"/>
        <path id="Path_184" data-name="Path 184" class="cls-1" d="M138.224,115.56H137.8C137.97,115.221,138.054,115.306,138.224,115.56Z" transform="translate(-20.756 -17.631)"/>
        <path id="Path_185" data-name="Path 185" class="cls-1" d="M152.227,133.7c-2.968,6.783-4.833,14.414-13.227,16.957C146.292,147.181,149.344,140.568,152.227,133.7Z" transform="translate(-20.939 -20.425)"/>
        <path id="Path_186" data-name="Path 186" class="cls-1" d="M277.7,84.7c-.678-.339-1.611-.424-1.7-1.357a.662.662,0,0,1,.339-.339C277.187,83.17,277.441,83.933,277.7,84.7Z" transform="translate(-41.781 -12.712)"/>
        <path id="Path_187" data-name="Path 187" class="cls-1" d="M279.7,83.6c.085.17.085.339.17.424-.085-.085-.085-.254-.17-.424Z" transform="translate(-42.344 -12.803)"/>
        <path id="Path_188" data-name="Path 188" class="cls-1" d="M194.335,40.913c-1.526-1.95-1.441-4.409-2.035-6.613a12.586,12.586,0,0,1,1.781,3.731C194.165,38.963,194.25,39.9,194.335,40.913Z" transform="translate(-29.047 -5.303)"/>
        <path id="Path_189" data-name="Path 189" class="cls-1" d="M194.654,41.583c-.085-.933-.17-1.95-.254-2.883C196.011,40.141,196.1,40.82,194.654,41.583Z" transform="translate(-29.367 -5.972)"/>
        <path id="Path_190" data-name="Path 190" class="cls-1" d="M273.2,13.481V7.8h.254v5.765C273.37,13.565,273.285,13.481,273.2,13.481Z" transform="translate(-41.355 -1.271)"/>
        <path id="Path_191" data-name="Path 191" class="cls-1" d="M265.7,99.8c.933.339,1.1,1.1,1.1,1.95a3.477,3.477,0,0,1-1.1-1.95Z" transform="translate(-40.214 -15.268)"/>
        <path id="Path_192" data-name="Path 192" class="cls-1" d="M264.8,98.587a1.351,1.351,0,0,1-1.1-1.187A1.351,1.351,0,0,1,264.8,98.587Z" transform="translate(-39.91 -14.903)"/>
        <path id="Path_193" data-name="Path 193" class="cls-1" d="M259.854,99.3a1.041,1.041,0,0,1-.17-1.1,9.96,9.96,0,0,0,.424.933C260.023,99.133,259.939,99.217,259.854,99.3Z" transform="translate(-39.285 -15.024)"/>
        <path id="Path_194" data-name="Path 194" class="cls-1" d="M267.585,103.3c.085,0,.17.085.085.085a.312.312,0,0,1-.085.254l-.085-.085C267.5,103.47,267.585,103.385,267.585,103.3Z" transform="translate(-40.488 -15.8)"/>
        <path id="Path_195" data-name="Path 195" class="cls-1" d="M265.685,99.77a.083.083,0,0,1-.085-.085V99.6c0,.085,0,.17.085.17Z" transform="translate(-40.199 -15.237)"/>
        <path id="Path_196" data-name="Path 196" class="cls-1" d="M235,32.9h0Z" transform="translate(-35.544 -5.09)"/>
        <path id="Path_197" data-name="Path 197" class="cls-1" d="M242.927,102.373c-.933-.678-1.187-1.357-.763-2.12.085-.254.509-.339.594-.17C243.267,100.678,243.1,101.441,242.927,102.373Z" transform="translate(-36.603 -15.298)"/>
        <path id="Path_198" data-name="Path 198" class="cls-1" d="M243.97,103.6c0,.085.085.085.085.17a.312.312,0,0,0-.254.085v-.17A.263.263,0,0,1,243.97,103.6Z" transform="translate(-36.882 -15.846)"/>
        <path id="Path_199" data-name="Path 199" class="cls-1" d="M208.7,124.8c.17.085.254.17.424.17l-.17.17a.454.454,0,0,0-.254-.339Z" transform="translate(-31.542 -19.071)"/>
        <path id="Path_200" data-name="Path 200" class="cls-1" d="M296.9,78.3a4.478,4.478,0,0,1,1.7,4.409C298.087,81.268,297.494,79.741,296.9,78.3Z" transform="translate(-44.961 -11.997)"/>
        <path id="Path_201" data-name="Path 201" class="cls-1" d="M316.35,58.27c-.933.254-1.357-.17-1.95-.678A2.1,2.1,0,0,1,316.35,58.27Z" transform="translate(-47.623 -8.84)"/>
        <path id="Path_202" data-name="Path 202" class="cls-1" d="M312.3,56.384a.675.675,0,0,1,1.017.424c-.085.678-.509.085-.763,0C312.47,56.808,312.385,56.554,312.3,56.384Z" transform="translate(-47.304 -8.649)"/>
        <path id="Path_203" data-name="Path 203" class="cls-1" d="M308.5,45.6a.083.083,0,0,1,.085.085c0-.085,0-.085-.085-.085Z" transform="translate(-46.725 -7.022)"/>
        <path id="Path_204" data-name="Path 204" class="cls-1" d="M129.1,152.8h.424C129.354,153.054,129.185,153.054,129.1,152.8Z" transform="translate(-19.432 -23.331)"/>
        <path id="Path_205" data-name="Path 205" class="cls-1" d="M100.3,146.752c0-.339.085-.339.339-.085l-.17.17Z" transform="translate(-15.051 -22.37)"/>
        <path id="Path_206" data-name="Path 206" class="cls-1" d="M173.7,55.2Z" transform="translate(-26.218 -8.483)"/>
        <path id="Path_207" data-name="Path 207" class="cls-1" d="M178,87.846c1.611-2.544,2.883-2.628,4.409-.254.763,1.187,1.187,1.865,2.289.509a.8.8,0,0,1,1.272,0c.424.424.17.933-.17,1.357-.763.933-2.289,1.441-1.781,3.222.17.509-1.1.848-1.865.848-.848,0-1.1-.424-1.017-1.187a9.924,9.924,0,0,0-.339-2.2C180.713,88.439,180.289,87.083,178,87.846Z" transform="translate(-26.872 -13.149)"/>
        <path id="Path_208" data-name="Path 208" class="cls-1" d="M212.695,91.605c-.848-.509-.339-1.781-1.187-1.611-1.1.17-2.374.424-2.968,1.611-.424.848-.678,2.289-1.95,1.611-1.187-.678-.339-2.035,0-3.052.17-.593.848-.678,1.441-.763.763-.085,1.441-.17,2.2-.254a2.193,2.193,0,0,0,2.374-2.035,5.258,5.258,0,0,1,2.12-3.561.908.908,0,0,1,1.187-.085.818.818,0,0,1,0,1.187C213.8,86.433,213.458,89.062,212.695,91.605Z" transform="translate(-31.128 -12.754)"/>
        <path id="Path_209" data-name="Path 209" class="cls-1" d="M249.4,54.681c.848-1.781,1.7-3.646,2.628-5.426.085-.17.424-.254.594-.254.339.085.424.424.339.763a20.811,20.811,0,0,1-.678,2.459c-.254.933.085,1.1.933.848a8.3,8.3,0,0,0,3.052-2.883c.424-.594.848-1.441,1.7-.848.933.763-.085,1.357-.424,1.865-1.272,1.7-2.8,3.137-5.087,3.307-.763.085-1.017.509-1.441,1.017-.339.339-.594.933-1.187.593C249.4,55.783,249.654,55.274,249.4,54.681Z" transform="translate(-37.734 -7.539)"/>
        <path id="Path_210" data-name="Path 210" class="cls-1" d="M258.449,45.509a2.043,2.043,0,0,1-1.526-.594c-.254-.254-.594-.509-.339-.933.17-.339.509-.254.848-.254,1.187,0,2.459.17,1.526-1.781-.254-.594.17-.848.678-.763a2.5,2.5,0,0,0,2.628-1.357.95.95,0,0,1,1.272-.254.927.927,0,0,1,.424,1.1C263.621,42.2,259.806,45.509,258.449,45.509Z" transform="translate(-38.814 -6.084)"/>
        <path id="Path_211" data-name="Path 211" class="cls-1" d="M196.366,85.4c.509,0,.933.085,1.017.424.254.509-.17.848-.594.933-1.1.339-1.272,1.017-.848,2.035a2.5,2.5,0,0,1,.17,1.1c-.085.678.085,1.7-.848,1.7-.763,0-.848-.933-.848-1.611,0-1.017-.509-1.441-1.526-1.357-.424,0-.933.17-1.1-.339-.254-.594.254-.933.678-1.187A15.567,15.567,0,0,1,196.366,85.4Z" transform="translate(-28.959 -13.077)"/>
        <path id="Path_212" data-name="Path 212" class="cls-1" d="M271.89,46.2c-.678,2.289-1.357,4.494-1.781,6.7a2.837,2.837,0,0,1-.848,1.441c-.594.594-.933,2.12-1.95,1.526-1.187-.678.085-1.526.509-2.289.848-1.357,1.017-3.052,1.7-4.494C270.109,47.981,270.533,46.794,271.89,46.2Z" transform="translate(-40.384 -7.113)"/>
        <path id="Path_213" data-name="Path 213" class="cls-1" d="M232.4,68.628c1.187-2.459,3.222-3.815,5.511-5.087.594-.339,1.187-.594,1.611.17.339.763-.339,1.017-.763,1.187a18.842,18.842,0,0,0-5.257,3.646A.859.859,0,0,1,232.4,68.628Z" transform="translate(-35.148 -9.702)"/>
        <path id="Path_214" data-name="Path 214" class="cls-1" d="M185.283,77.5a5.5,5.5,0,0,1,2.968.678c.509.339.848.763.678,1.357a1.018,1.018,0,0,1-1.357.594c-1.441-.424-2.8-1.1-4.409-1.017-.254,0-.763-.254-.763-.678s.424-.509.763-.678A9.616,9.616,0,0,1,185.283,77.5Z" transform="translate(-27.541 -11.875)"/>
        <path id="Path_215" data-name="Path 215" class="cls-1" d="M226.587,81.106c-.339-2.8.509-4.239,3.052-5.257.763-.254,1.781-1.526,2.374-.339.678,1.272-.848,1.526-1.7,1.95A7.7,7.7,0,0,0,226.587,81.106Z" transform="translate(-34.253 -11.497)"/>
        <path id="Path_216" data-name="Path 216" class="cls-1" d="M248.338,62.5a1.6,1.6,0,0,1-.594,1.187c-1.187,1.187-2.289,2.374-3.476,3.561-.254.254-.678.678-1.1.339a.692.692,0,0,1,.085-1.017c1.1-1.441,2.289-2.883,3.476-4.239a1.011,1.011,0,0,1,1.187-.339A.626.626,0,0,1,248.338,62.5Z" transform="translate(-36.757 -9.505)"/>
        <path id="Path_217" data-name="Path 217" class="cls-1" d="M198.4,94.152c1.441-1.526,2.713-2.968,4.155-4.409a1.074,1.074,0,0,1,1.526,0c.509.509.085.933-.254,1.187-1.1.933-1.865,2.289-3.307,2.968C199.841,94.152,199.333,94.661,198.4,94.152Z" transform="translate(-29.975 -13.689)"/>
        <path id="Path_218" data-name="Path 218" class="cls-1" d="M210.458,74.145a10.393,10.393,0,0,1-2.8,3.9c-.339.254-.678.17-1.017-.17a1.217,1.217,0,0,1-.254-1.187,7.977,7.977,0,0,1,3.391-3.307C210.373,73.043,210.458,73.636,210.458,74.145Z" transform="translate(-31.18 -11.234)"/>
      </g>
    </g>
    <path id="Path_219" data-name="Path 219" class="cls-3" d="M260.914,46.857a9.157,9.157,0,1,1-18.314,0,13.866,13.866,0,0,1,.17-1.865,9.094,9.094,0,0,1,8.9-7.292A9.191,9.191,0,0,1,260.914,46.857Z" transform="translate(-36.945 -5.72)"/>
    <circle id="Ellipse_40" data-name="Ellipse 40" class="cls-3" cx="9.157" cy="9.157" r="9.157" transform="translate(232.617 20.703)"/>
    <path id="Path_220" data-name="Path 220" class="cls-4" d="M258.144,48.272a5.172,5.172,0,0,1-10.344,0,4.128,4.128,0,0,1,.085-1.017,5.181,5.181,0,0,1,10.259,1.017Z" transform="translate(-37.736 -6.542)"/>
    <path id="Path_221" data-name="Path 221" class="cls-4" d="M289.444,34.272a5.172,5.172,0,0,1-10.344,0,4.128,4.128,0,0,1,.085-1.017,5.186,5.186,0,0,1,5.087-4.155A5.086,5.086,0,0,1,289.444,34.272Z" transform="translate(-42.498 -4.412)"/>
    <path id="Path_222" data-name="Path 222" class="cls-5" d="M261.205,44.755,243.4,41.872a10.152,10.152,0,0,1,9.242-5.172C259.849,36.869,261.205,44.755,261.205,44.755Z" transform="translate(-37.067 -5.568)"/>
    <path id="Path_223" data-name="Path 223" class="cls-5" d="M275.675,38.095l12.379-13.142a10.194,10.194,0,0,0-10.514,1.526C271.86,31.057,275.675,38.095,275.675,38.095Z" transform="translate(-41.786 -3.656)"/>
  </g>
</svg>
