<svg xmlns="http://www.w3.org/2000/svg" viewBox="-357 3531 223.59 230.22">
  <defs>
    <style>
      .cls-1 {
        fill: #4d4d4d;
      }

      .cls-2 {
        fill: #f2f2f2;
      }

      .cls-3 {
        fill: #333;
      }
    </style>
  </defs>
  <g id="Group_64" data-name="Group 64" transform="translate(-356.974 3531)">
    <path id="Path_307" data-name="Path 307" class="cls-1" d="M63,64.6c0,37.4-15.7,131.5-13.8,149,2.6,24,26.1,3.7,35.8,0,20.6-7.8,30.5,18.6,42.6,15.1s20.2-30.3,38.8-15.1c15.2,12.3,24.2,23.7,38.5,11.2,11-9.7-9.6-120.2-12.7-160.2C189.4,29,163.2,0,127.6,0A64.635,64.635,0,0,0,63,64.6Z"/>
    <path id="Path_308" data-name="Path 308" class="cls-1" d="M192.7,98.4s67.4-25.2,3,22.1"/>
    <path id="Path_309" data-name="Path 309" class="cls-1" d="M81.2,103.8s-59.4-36.6-2.4,22"/>
    <path id="Path_310" data-name="Path 310" class="cls-2" d="M29.2,64.6c0,37.4-15.7,131.5-13.8,149,2.6,24,26.1,3.7,35.8,0,20.6-7.8,30.5,18.6,42.6,15.1s20.2-30.3,38.8-15.1c15.2,12.3,24.2,23.7,38.5,11.2,11-9.7-9.6-120.2-12.7-160.2C155.6,29,129.5,0,93.8,0A64.571,64.571,0,0,0,29.2,64.6Z"/>
    <path id="Path_311" data-name="Path 311" class="cls-3" d="M77.5,63.1c.8,5-3.2,1.4-8.3,1.8-8,.8-11.6,7.4-12.3,2.4a9.235,9.235,0,0,1,7.7-10.5C69.6,56.1,76.7,58.1,77.5,63.1Z"/>
    <path id="Path_312" data-name="Path 312" class="cls-3" d="M125.7,65.7c1.3,4.9-7.2.8-12.1-.2s-11.3,3.7-10.2-1.3,10.1-8,14.8-6.2C122.3,59.4,124.3,60.4,125.7,65.7Z"/>
    <path id="Path_313" data-name="Path 313" class="cls-3" d="M109.1,94.1c0,4-7.4,11-16.5,11s-16.5-7-16.5-11,7.4-1.8,16.5-1.8S109.1,90.1,109.1,94.1Z"/>
    <path id="Path_314" data-name="Path 314" class="cls-2" d="M162,95.6s67.4-25.2,3,22.1"/>
    <path id="Path_315" data-name="Path 315" class="cls-2" d="M27.1,98.4s-59.4-36.6-2.4,22"/>
  </g>
</svg>
