<svg xmlns="http://www.w3.org/2000/svg" viewBox="-963.65 2013.7 98.312 84.506">
  <defs>
    <style>
      .cls-1 {
        fill: #fff;
      }
    </style>
  </defs>
  <g id="dPPf30_2_" transform="translate(-963.65 2013.7)">
    <g id="Group_19" data-name="Group 19" transform="translate(0 0)">
      <path id="Path_43" data-name="Path 43" class="cls-1" d="M45.718,22.972a20.526,20.526,0,0,0,.493-3.893c0-5.864-.2-11.728-.3-17.592V.206a.312.312,0,0,1,.246-.3c1.725-.246,1.873-.049,1.823,1.675V3.409a2.506,2.506,0,0,0,.2.69c1.675-.3,3.351-.591,5.174-.887.1,0,.2-.1.246-.246.1-.739.2-1.675.345-2.661a.276.276,0,0,1,.3-.246c1.873.2,1.873.3,1.626,2.217-.936,7.194-1.38,14.34-.3,21.534a10.726,10.726,0,0,0,.69,2.365c.641-.148.443-.1,1.084-.246V25.88c-.345-5.864,2.02-10.595,6.258-14.389,2.612-2.316,5.618-2.365,8.673-.69a20.161,20.161,0,0,1,6.061,5.47,66.674,66.674,0,0,1,8.574,15.276c4.09,9.708,7.983,19.464,10,29.862.986,5.273,1.873,10.545,1.281,15.916a10.673,10.673,0,0,1-.2,1.232c-1.035,4.583-4.041,6.307-8.525,4.731a20.891,20.891,0,0,0-10-1.035A48.086,48.086,0,0,1,63.754,82.1c-7.638-1.38-10.989-4.977-11.876-12.615-1.183-9.757-1.084-19.612-.788-29.418v-.542a.312.312,0,0,0-.246-.3,4.661,4.661,0,0,0-3.351.838c-.246.148-.3.788-.3,1.183.394,9.658.443,19.366-.986,28.975-.936,6.357-4.139,9.609-10.4,10.989a49.361,49.361,0,0,1-17.641.345c-1.577-.246-3.154-.394-4.731-.493a10.16,10.16,0,0,0-6.7,1.873C3.094,85.455,1.123,84.568.433,80.183-.356,75.3.285,70.426,1.172,65.6,4.326,48.941,11.323,33.961,21.08,20.213a25.881,25.881,0,0,1,8.131-7.884,9.5,9.5,0,0,1,11.728,1.823,16.65,16.65,0,0,1,3.646,7.835c.049.246.1.542.148.788A1.7,1.7,0,0,0,45.718,22.972ZM69.223,49.631c-.443.148-.394.148-.838.3.1,1.922.246,3.844.345,5.716.345,5.371,3.1,9.018,8.081,11.038A38.4,38.4,0,0,1,82.084,68.9a56.2,56.2,0,0,1,7,4.731,5.745,5.745,0,0,1,1.971,3.794.286.286,0,0,1-.542.148c-.493-.986-1.33-1.675-3.055-2.513-3.006-1.478-6.11-2.76-9.116-4.189-2.02-.936-4.09-1.823-6.012-2.907a11.048,11.048,0,0,1-5.765-7.983c-.591-3.3-.788-6.652-1.183-9.954-.1-1.035-.148-2.119-.246-3.2a.233.233,0,0,0-.246-.246c-4.977-.493-8.574-3.4-12.319-6.406a.266.266,0,0,0-.443.2,10.6,10.6,0,0,0-.1,1.133,90.7,90.7,0,0,0,1.38,22.519,45.76,45.76,0,0,0,2.612,9.215c2.168,4.928,6.258,7.392,11.629,7.539a51.055,51.055,0,0,0,7.244-.443c5.174-.69,10.348-1.577,15.374.788,2.562,1.183,4.533-.345,4.878-2.907a44.919,44.919,0,0,0-.493-13.6A171.5,171.5,0,0,0,83.711,29.625a49.763,49.763,0,0,0-7.194-12.566,25.286,25.286,0,0,0-4.78-4.681,6.391,6.391,0,0,0-8.968,1.38,15.828,15.828,0,0,0-3.154,10c.049,1.971.2,3.893.394,5.864.049.394.591.838.986.986.3.1.838-.345,1.035-.69.838-1.38,1.577-2.858,2.365-4.287a57.629,57.629,0,0,0,2.71-5.174,4.758,4.758,0,0,0,.1-4.238c-.148-.246.2-.542.443-.345a4.225,4.225,0,0,1,.986,4.533,54.811,54.811,0,0,1-2.464,5.864,43.632,43.632,0,0,0-2.02,5.322c-.739,3.006.788,5.618,1.725,8.328.443,1.281,1.183,1.478,2.365,1.232a10.064,10.064,0,0,0,7.539-7.835,6.207,6.207,0,0,0-1.084-4.878A2.735,2.735,0,0,1,76.565,31.5c-.049.887-.2,1.774-.345,2.76a.271.271,0,0,0,.493.2,22.422,22.422,0,0,0,3.154-7.638,18.042,18.042,0,0,1-2.809,8.278.29.29,0,0,0,.246.443H80.36a23.077,23.077,0,0,0-4.189,1.33,18.439,18.439,0,0,0-3.449,2.759,10.459,10.459,0,0,1-5.371,3.006.289.289,0,0,0-.246.345c.246.887.542,1.725.69,2.562.591,3.3,2.858,5.223,5.568,6.652,3.2,1.675,7.589-1.035,7.342-4.238a6.211,6.211,0,0,1,.394-1.133,2.711,2.711,0,0,1-.1,3.4,21.465,21.465,0,0,1-1.725,1.971c-.2.2,0,.542.246.443.641-.148,1.33-.3,2.02-.443.2.591.1.394.3.986a25.38,25.38,0,0,1-3.449.986.283.283,0,0,0-.049.542,31.264,31.264,0,0,0,4.041,1.183,7.581,7.581,0,0,1,5.568,4.829,5.409,5.409,0,0,1,.1,1.281c-.493-.148-.739-.3-.838-.542-1.133-3.4-3.844-4.731-7.047-5.667a56.545,56.545,0,0,1-7.441-2.858,11.8,11.8,0,0,1-2.907-2.316A3.28,3.28,0,0,0,69.223,49.631ZM30.2,25.042c.3-.394.2-.3.493-.69l3.006,1.675c.246.1.493-.1.394-.345a2.54,2.54,0,0,0-1.774-2.02,2.813,2.813,0,0,1-1.774-3.548.277.277,0,0,1,.542.049c.049,1.528.443,2.02,1.675,2.415a.249.249,0,0,0,.345-.246,1.155,1.155,0,0,1,.1-.591c.641-1.675,1.183-3.4,1.971-4.977a1.516,1.516,0,0,1,2.316-.591c-1.675.148-2.119,1.577-2.513,3.006a7.987,7.987,0,0,0,.69,5.913c.838,1.577,1.971,2.957,2.907,4.435a1.624,1.624,0,0,0,2.119.739,1.917,1.917,0,0,0,1.429-1.971,21.218,21.218,0,0,0-1.774-10.052c-2.316-4.878-6.258-5.962-10.742-3.006a14.788,14.788,0,0,0-2.71,2.217,59.75,59.75,0,0,0-4.878,5.716A133.078,133.078,0,0,0,7.085,49.927C3.34,59.092,1.073,68.6,1.271,78.556a10.521,10.521,0,0,0,.69,3.5c.542,1.478,1.528,1.823,2.71.788a62.776,62.776,0,0,0,4.484-4.435.293.293,0,0,0-.148-.493,4.243,4.243,0,0,1-3.794-3.646A20.988,20.988,0,0,1,5.853,65.7c.049.936,0,1.873.1,2.809a41.583,41.583,0,0,0,.591,4.977,3.542,3.542,0,0,0,4.336,2.661,22.055,22.055,0,0,0,3.548-1.38c3.351-1.725,6.652-3.5,9.9-5.42a9.264,9.264,0,0,0,3.548-3.006c1.725-3.252,3.055-6.7,4.632-10.3a.269.269,0,0,0-.246-.394c-3.2-.1-5.618-1.478-8.081-2.759-2.907-1.577-5.47-3.745-8.87-4.287,2.316-.246,4.238.788,6.258,1.675,2.217.986,4.336,2.119,6.6,3.006a6.194,6.194,0,0,0,2.858.345,4.732,4.732,0,0,0,4.09-3.5A40.411,40.411,0,0,0,37.44,34.06a10.076,10.076,0,0,0-.69-2.858c-1.183-3.154-3.7-4.928-7.047-4.533a57.767,57.767,0,0,0-7,1.675c-.345.1-.69.3-1.084.443a11.217,11.217,0,0,1,8.771-2.957.284.284,0,0,0,.2-.493A1.186,1.186,0,0,1,30.2,25.042ZM12.407,78.113a5.384,5.384,0,0,0,.246.838A56.256,56.256,0,0,1,18.419,79c3.449.246,6.9.936,10.348,1.035A14.971,14.971,0,0,0,43.4,69.933c.246-.69.443-1.429.641-2.119a94.221,94.221,0,0,0,2.168-25.772,7.62,7.62,0,0,0-.148-.838.27.27,0,0,0-.443-.148c-1.725,1.232-3.2,2.365-4.731,3.4a3.476,3.476,0,0,0-1.626,2.562,12.064,12.064,0,0,1-3.006,6.751,11.587,11.587,0,0,0-1.971,3.6c-.986,2.562-1.626,5.223-2.612,7.786a15.536,15.536,0,0,1-9.757,9.165c-2.267.788-4.583,1.577-6.8,2.464A19.7,19.7,0,0,0,12.407,78.113ZM53.356,30.265a.286.286,0,0,1,.148.542,8.407,8.407,0,0,1-4.09,1.035,4.26,4.26,0,0,1-3.745-2.513.279.279,0,0,0-.493,0c-1.281,1.774-2.562,3.252-4.583,3.942a1.059,1.059,0,0,0-.69.936c-.049,2.168,0,4.386,0,6.9a.308.308,0,0,0,.443.246c1.38-.788,2.513-1.429,3.745-2.119a.279.279,0,0,0,0-.493c-2.316-1.035-3.4-2.71-3.1-4.386A21.4,21.4,0,0,0,43.3,37.263c1.38,1.281,1.873,1.232,3.351.049,1.38-1.084,2.759-2.02,4.533-1.133a.33.33,0,0,0,.394-.148,7.126,7.126,0,0,1,4.336-3.942,5.8,5.8,0,0,1-.936,1.232c-.739.887-1.429,1.823-2.07,2.759a1.169,1.169,0,0,0-.049,1.133c1.035.936,2.119,1.823,3.3,2.76a.27.27,0,0,0,.443-.148c1.035-3.991,1.873-5.273,3.5-5.273a6.251,6.251,0,0,0-.788.986c-.641,1.478-1.281,2.957-1.823,4.435a1.342,1.342,0,0,0,.3,1.133A9.648,9.648,0,0,0,64.1,43.077c.2,0,.3-.2.246-.394-.443-1.232-.838-2.316-1.232-3.449h-.936L61.29,41.6a.268.268,0,0,1-.493.049c-.641-1.281-.3-1.971,1.577-3.7a.376.376,0,0,0,.1-.246,31.554,31.554,0,0,0-.69-3.1,1.521,1.521,0,0,0-.887-.936,9.013,9.013,0,0,1-5.076-3.5A28.229,28.229,0,0,1,54.1,27.259a.273.273,0,0,0-.394-.1c-1.774,1.281-3.844,1.133-6.7-.493a.258.258,0,0,0-.394.1c-.838,1.675-.443,2.907,1.183,3.646a3.689,3.689,0,0,0,1.774.345C50.744,30.659,52.026,30.462,53.356,30.265ZM53.307,4.937c-1.675.148-3.351.246-5.076.394a.276.276,0,0,0-.246.3c0,.591.049,1.232,0,1.873-.1,1.281.591,1.577,1.725,1.528,2.858-.148,3.3-.591,3.6-3.5Zm-5.42,17.986a.265.265,0,0,0-.444.148q-.074.443-.148.739c-.443,2.02.148,2.907,2.217,2.809a22.206,22.206,0,0,0,3.844-.788.28.28,0,0,0,.2-.345l-.493-2.119a.294.294,0,0,0-.394-.2C50.991,24.056,49.414,24.352,47.886,22.923Zm.394-12.861a.276.276,0,0,0-.246.3c.1.887,0,2.217.542,2.612a3.8,3.8,0,0,0,3.351.1c1.38-.69.591-2.217.788-3.252a.244.244,0,0,0-.3-.3ZM52.124,14l-3.745.345a.276.276,0,0,0-.246.3,5.837,5.837,0,0,1-.1,1.281c-.3,1.725.788,2.119,2.07,2.217A2.989,2.989,0,0,0,51.582,18a1.527,1.527,0,0,0,.788-.887A27.391,27.391,0,0,0,52.42,14.3.233.233,0,0,0,52.124,14Zm.3,5.174H48.182a.312.312,0,0,0-.3.246c-.2,1.133-.394,2.316,1.035,3.055,1.183.641,2.661.641,3.351-.2.542-.641.345-1.873.394-2.809C52.666,19.277,52.568,19.178,52.42,19.178Z" transform="translate(-0.076 0.176)"/>
      <path id="Path_44" data-name="Path 44" class="cls-1" d="M159.843,118c1.33,1.281,2.661,2.612,3.942,3.893.345.345.641.788.936,1.133.443.493.2,1.922-.493,2.07a1.223,1.223,0,0,1-.838-.394c.246-3.1-2.02-4.583-3.991-6.307A1.163,1.163,0,0,0,159.843,118Z" transform="translate(-80.89 -59.767)"/>
      <path id="Path_45" data-name="Path 45" class="cls-1" d="M26.95,109.835a.282.282,0,0,1-.345-.443,14.692,14.692,0,0,1,4.928-3.3c1.577-.591,2.957-.3,3.7.739a1.1,1.1,0,0,1,.148.69.276.276,0,0,1-.246.3,1.257,1.257,0,0,1-.739,0,4.207,4.207,0,0,0-4.484.2C28.922,108.6,27.936,109.243,26.95,109.835Z" transform="translate(-13.486 -53.573)"/>
      <path id="Path_46" data-name="Path 46" class="cls-1" d="M41.544,92.233a.279.279,0,0,1,0,.493c-1.035.542-1.675-.049-2.267-.542A3.537,3.537,0,0,1,38,89.227a.274.274,0,0,1,.542-.049C38.883,90.656,40.066,91.494,41.544,92.233Z" transform="translate(-19.309 -45.038)"/>
      <path id="Path_47" data-name="Path 47" class="cls-1" d="M32.664,87.032C30.743,86.1,29.806,82.055,30.792,79a14.841,14.841,0,0,0,.049,2.562,13.878,13.878,0,0,0,.739,2.809A18.924,18.924,0,0,0,32.664,87.032Z" transform="translate(-15.455 -39.985)"/>
      <path id="Path_48" data-name="Path 48" class="cls-1" d="M90.142,65.541A4.413,4.413,0,0,0,93.591,68.1a.308.308,0,0,1,.1.542,2.514,2.514,0,0,1-2.562-.1A3.152,3.152,0,0,1,89.6,65.689.287.287,0,0,1,90.142,65.541Z" transform="translate(-45.486 -33.08)"/>
    </g>
  </g>
</svg>
