<svg xmlns="http://www.w3.org/2000/svg" viewBox="-1222.671 1673.377 227.086 594.54">
  <defs>
    <style>
      .cls-1 {
        fill: #59c3c3;
      }

      .cls-2 {
        fill: none;
        stroke: #fff;
        stroke-miterlimit: 10;
        stroke-width: 5.669px;
      }
    </style>
  </defs>
  <g id="Group_55" data-name="Group 55" transform="translate(-1404 1607.429)">
    <g id="Group_26" data-name="Group 26" transform="translate(181.329 65.948)">
      <g id="CKuWfJ_4_" transform="translate(0 0)">
        <g id="Group_24" data-name="Group 24">
          <path id="Path_76" data-name="Path 76" class="cls-1" d="M65.213,590.2c-.836-.372-1.579-.836-2.415-1.115-8.082-2.322-12.82-7.8-14.213-16.071a85.659,85.659,0,0,1-.929-11.984V183.223H36.137V321.732a56.42,56.42,0,0,1-.557,7.9A17.288,17.288,0,0,1,17.65,344.4C7.9,344.027.743,337.431.093,328.049c0-.279-.093-.65-.093-.929Q0,250.2.186,173.376c.093-24.339,18.208-43.1,40.689-48.306a105.473,105.473,0,0,1,22.945-2.787c29.448-.279,58.8-.279,88.252-.093,12.541.093,25.082,1.3,36.415,7.617,15.514,8.732,24.432,21.924,26.94,39.481a80.374,80.374,0,0,1,.65,11.612V322.1c0,6.781-.557,13.377-5.852,18.393-4.924,4.645-10.59,7.06-17.372,4.738-7.246-2.508-10.962-8.268-12.355-15.514a50.474,50.474,0,0,1-.65-9.2V183.409H168.328v379.2c.372,13.191-3.251,23.874-17.557,27.776H137.765a9.841,9.841,0,0,0-1.951-1.022c-9.2-2.508-13.934-8.732-14.771-18.022-.372-3.716-.65-7.432-.65-11.055V369.48c0-9.011-.093-17.929,0-26.94,0-2.787-.929-3.9-3.716-3.809-4.924.093-9.94,0-14.863,0-6.038,0-6.038,0-6.038,6.131V560.2c0,1.579.093,3.066,0,4.645-.836,13.005-2.415,20.716-17.093,25.175-.093,0-.186.279-.279.372C73.853,590.2,69.579,590.2,65.213,590.2Z" transform="translate(0 -8.671)"/>
          <path id="Path_77" data-name="Path 77" class="cls-1" d="M116.963,0c10.4,2.23,19.88,6.317,27.776,13.842,14.492,13.749,19.044,39.481,10.033,57.41-12.262,24.618-36.88,33.628-61.219,24.8A48.045,48.045,0,0,1,61.782,46.169C64.2,21.645,79.34,5.76,103.678.557A4.8,4.8,0,0,0,104.886,0Z" transform="translate(-4.372 0)"/>
        </g>
      </g>
      <g id="CKuWfJ_3_" transform="translate(8.175 9.94)">
        <g id="Group_25" data-name="Group 25">
          <path id="Path_78" data-name="Path 78" class="cls-2" d="M74.013,600.9c-.836-.372-1.579-.836-2.415-1.115-8.082-2.322-12.82-7.8-14.213-16.071a85.658,85.658,0,0,1-.929-11.984V193.923H44.937V332.431a56.419,56.419,0,0,1-.557,7.9A17.288,17.288,0,0,1,26.45,355.1c-9.754-.372-16.814-6.967-17.557-16.35,0-.279-.093-.65-.093-.929q0-76.918.186-153.744c.093-24.339,18.208-43.1,40.689-48.306a105.472,105.472,0,0,1,22.945-2.787c29.448-.279,58.8-.279,88.252-.093,12.541.093,25.082,1.3,36.415,7.618,15.514,8.732,24.432,21.924,26.94,39.481a80.37,80.37,0,0,1,.65,11.612V332.8c0,6.781-.557,13.377-5.852,18.393-4.924,4.645-10.59,7.06-17.372,4.738-7.246-2.508-10.962-8.268-12.355-15.514a50.472,50.472,0,0,1-.65-9.2V194.109H177.128v379.2c.372,13.191-3.251,23.874-17.557,27.776H146.565a9.838,9.838,0,0,0-1.951-1.022c-9.2-2.508-13.934-8.732-14.77-18.022-.372-3.716-.65-7.432-.65-11.055V380.18c0-9.011-.093-17.929,0-26.94,0-2.787-.929-3.9-3.716-3.809-4.924.093-9.94,0-14.863,0-6.038,0-6.038,0-6.038,6.131V570.9c0,1.579.093,3.066,0,4.645-.836,13.006-2.415,20.716-17.093,25.175-.093,0-.186.279-.279.372C82.653,600.9,78.379,600.9,74.013,600.9Z" transform="translate(-8.8 -19.371)"/>
          <path id="Path_79" data-name="Path 79" class="cls-2" d="M125.763,10.7c10.4,2.23,19.88,6.317,27.776,13.842,14.492,13.749,19.044,39.481,10.033,57.41-12.262,24.618-36.88,33.628-61.219,24.8A47.86,47.86,0,0,1,70.582,56.962C73,32.438,88.14,16.552,112.478,11.35a4.8,4.8,0,0,0,1.208-.557C117.681,10.7,121.768,10.7,125.763,10.7Z" transform="translate(-13.172 -10.7)"/>
        </g>
      </g>
    </g>
  </g>
</svg>
