<svg xmlns="http://www.w3.org/2000/svg" viewBox="757 4918 204.619 207.217">
  <defs>
    <style>
      .cls-1 {
        fill: #ed1e79;
      }

      .cls-2 {
        fill: none;
        stroke: #fff;
        stroke-miterlimit: 10;
        stroke-width: 2.835px;
      }
    </style>
  </defs>
  <g id="zeFcHL_3_" transform="translate(757 4918)">
    <g id="Group_45" data-name="Group 45">
      <path id="Path_261" data-name="Path 261" class="cls-1" d="M145.2,154.8c-2.2-8.8-4.5-17.5-6.5-26.3-.8-3.4-1.9-7-1.4-10.3,1.3-8.6,5.2-11.5,14.3-11.5,7.3,0,14.7-.5,22,.1,7.5.6,10.1-1.6,9.9-9.6-.5-32.4-.2-64.8-.2-97.2h15.2q-.15,95.25-.2,190.5V201h-15V169.7c0-14.9,0-14.9-14.8-14.9-7.8,0-15.7-.1-23.5-.2Z"/>
      <path id="Path_262" data-name="Path 262" class="cls-1" d="M148.3,0c6.2,2.9,9,8,10.4,14.6,2.4,11.6,5.9,23,8.1,34.6a24.876,24.876,0,0,1-1.7,14.3c-6.3,12.7-13.5,24.9-20.6,37.1-1.2,2-4.1,4.3-6.2,4.3-30.3.3-60.6.2-91.1.2,3-10.5,15.2-19.4,28-19.8,15.4-.5,30.9-.5,46.3-.2,5.4.1,8.2-2.1,11.5-6.4,12.4-16.2,15.2-33.2,7.1-52-1-2.3-1.3-4.9-1.9-7.3C135.4,7.9,135.9,6.5,145.4,0Z"/>
      <path id="Path_263" data-name="Path 263" class="cls-1" d="M144.9,154.5c4.2,15.2,8.4,30.5,12.8,46.5H49.6c4-14.2,7.7-28.1,12.1-41.6.6-1.9,5-3.5,7.7-3.5,22.5-.3,45-.1,67.5-.2a79,79,0,0,0,8.2-.9C145.2,154.8,144.9,154.5,144.9,154.5Z"/>
      <path id="Path_264" data-name="Path 264" class="cls-1" d="M127.4,51.4c.1,15-9.6,25-24.4,25.2A25.46,25.46,0,0,1,77.2,51.2a25.686,25.686,0,0,1,25.3-25.1C116.4,26.1,127.3,37.2,127.4,51.4Z"/>
      <path id="Path_265" data-name="Path 265" class="cls-1" d="M29.8,154.7H0V107.3H43.2c-4.6,16-9.1,31.8-13.6,47.6Z"/>
      <path id="Path_266" data-name="Path 266" class="cls-1" d="M29.6,154.9c7,.4,14,.8,22.5,1.3-4.3,13.8-7.9,27.3-13,40.3-1,2.6-7.7,4.6-11.3,4-6.1-1-8.1-6.6-6.8-12.4,1.8-7.8,4.4-15.5,6.5-23.3.9-3.4,1.6-6.8,2.3-10.2C29.8,154.7,29.6,154.9,29.6,154.9Z"/>
      <path id="Path_267" data-name="Path 267" class="cls-1" d="M87.9,143.3c-7.5-.2-12.7-5.8-12.4-13.3.3-6.8,6-12.5,12.7-12.5,6.9,0,12.8,6,12.8,13.2A12.371,12.371,0,0,1,87.9,143.3Z"/>
      <path id="Path_268" data-name="Path 268" class="cls-1" d="M131.8,131.3c-.4,7.4-6.1,12.4-13.6,11.9a12.845,12.845,0,0,1-11.9-13.1c.4-7,6.7-12.9,13.5-12.6C127,117.9,132.2,123.9,131.8,131.3Z"/>
      <path id="Path_269" data-name="Path 269" class="cls-1" d="M54.1,153.4c2.5-8.9,4.8-17.9,7.9-26.6.7-2,4.3-2.9,6.5-4.4a20.948,20.948,0,0,1,1.4,1.7c-2.4,8.9-4.6,17.9-7.6,26.7-.7,2.1-4.1,3.2-6.3,4.8C55.4,154.9,54.8,154.1,54.1,153.4Z"/>
    </g>
    <g id="zeFcHL_4_">
      <g id="Group_46" data-name="Group 46">
        <path id="Path_270" data-name="Path 270" class="cls-2" d="M149.9,159.5c-2.2-8.8-4.5-17.5-6.5-26.3-.8-3.4-1.9-7-1.4-10.3,1.3-8.6,5.2-11.5,14.3-11.5,7.3,0,14.7-.5,22,.1,7.5.6,10.1-1.6,9.9-9.6-.5-32.4-.2-64.8-.2-97.2h15.2q-.15,95.25-.2,190.5v10.5H188V174.4c0-14.9,0-14.9-14.8-14.9-7.8,0-15.7-.1-23.5-.2Z"/>
        <path id="Path_271" data-name="Path 271" class="cls-2" d="M153.1,4.8c6.2,2.9,9,8,10.4,14.6,2.4,11.6,5.9,23,8.1,34.6a24.876,24.876,0,0,1-1.7,14.3c-6.3,12.7-13.5,24.9-20.6,37.1-1.2,2-4.1,4.3-6.2,4.3-30.3.3-60.6.2-91.1.2,3-10.5,15.2-19.4,28-19.8,15.4-.5,30.9-.5,46.3-.2,5.4.1,8.2-2.1,11.5-6.4,12.4-16.2,15.2-33.2,7.1-52-1-2.3-1.3-4.9-1.9-7.3-2.8-11.5-2.3-12.9,7.2-19.4Z"/>
        <path id="Path_272" data-name="Path 272" class="cls-2" d="M149.7,159.3c4.2,15.2,8.4,30.5,12.8,46.5H54.4c4-14.2,7.7-28.1,12.1-41.6.6-1.9,5-3.5,7.7-3.5,22.5-.3,45-.1,67.5-.2a79,79,0,0,0,8.2-.9C149.9,159.5,149.7,159.3,149.7,159.3Z"/>
        <path id="Path_273" data-name="Path 273" class="cls-2" d="M132.1,56.2c.1,15-9.6,25-24.4,25.2A25.354,25.354,0,0,1,82,56.1,25.686,25.686,0,0,1,107.3,31C121.1,30.9,132,42,132.1,56.2Z"/>
        <path id="Path_274" data-name="Path 274" class="cls-2" d="M34.6,159.5H4.8V112.1H48c-4.6,16-9.1,31.8-13.6,47.6Z"/>
        <path id="Path_275" data-name="Path 275" class="cls-2" d="M34.4,159.7c7,.4,14,.8,22.5,1.3-4.3,13.8-7.9,27.3-13,40.3-1,2.6-7.7,4.6-11.3,4-6.1-1-8.1-6.6-6.8-12.4,1.8-7.8,4.4-15.5,6.5-23.3.9-3.4,1.6-6.8,2.3-10.2C34.6,159.5,34.4,159.7,34.4,159.7Z"/>
        <path id="Path_276" data-name="Path 276" class="cls-2" d="M92.6,148.1c-7.5-.2-12.7-5.8-12.4-13.3.3-6.8,6-12.5,12.7-12.5,6.9,0,12.8,6,12.8,13.2A12.372,12.372,0,0,1,92.6,148.1Z"/>
        <path id="Path_277" data-name="Path 277" class="cls-2" d="M136.6,136.1c-.4,7.4-6.1,12.4-13.6,11.9a12.845,12.845,0,0,1-11.9-13.1c.4-7,6.7-12.9,13.5-12.6C131.7,122.7,136.9,128.7,136.6,136.1Z"/>
        <path id="Path_278" data-name="Path 278" class="cls-2" d="M58.9,158.1c2.5-8.9,4.8-17.9,7.9-26.6.7-2,4.3-2.9,6.5-4.4a20.947,20.947,0,0,1,1.4,1.7c-2.4,8.9-4.6,17.9-7.6,26.7-.7,2.1-4.1,3.2-6.3,4.8C60.2,159.6,59.5,158.9,58.9,158.1Z"/>
      </g>
    </g>
  </g>
</svg>
