<svg xmlns="http://www.w3.org/2000/svg" viewBox="303 4933.861 207.288 172.517">
  <defs>
    <style>
      .cls-1 {
        fill: #29abe2;
      }

      .cls-2 {
        fill: none;
        stroke: #fff;
        stroke-miterlimit: 10;
        stroke-width: 2.835px;
      }
    </style>
  </defs>
  <g id="Group_41" data-name="Group 41" transform="translate(302.957 4933.84)">
    <g id="B086O9_4_" transform="translate(0.043 0.021)">
      <g id="Group_39" data-name="Group 39">
        <path id="Path_249" data-name="Path 249" class="cls-1" d="M111.378,45.094h3.866c29.109,0,58.161-.057,87.27,0,5.8,0,11.314,1.364,15.407,5.913,7.732,8.528,3.184,23.765-8.13,27.574-7.5,2.558-14.952,1.478-22.343-.284-14.327-3.468-28.654-7.107-42.981-10.575-12.451-3.013-25.186-2.331-37.864-2.16-7.789.114-15.464.8-22.684,3.98-4.491,1.99-8.073,5-9.608,9.779-5.856,18.079-11.6,36.159-17.4,54.238-.455,1.421-.8,2.9-1.137,4.378-2.1,8.642,2.445,15.635,11.314,17.511a7.438,7.438,0,0,1,6.026,5.4c.91,3.241-.512,6.311-3.752,7.05-6.254,1.535-11.541-1.023-16.2-4.776-8.642-6.879-11.541-16.26-9.381-26.607C46.85,121.789,51,107.291,54.7,92.68,58.5,77.443,62.2,62.15,66.066,46.913a18.248,18.248,0,0,1,13.019-13.7q55.858-16.2,111.773-32.065c5.572-1.592,11.03-1.819,16.089,1.478,10.29,6.766,9.1,23.651-2.047,30.018-5.856,3.3-12.337,4.15-18.818,4.435-13.361.569-26.721.682-40.025,1.251A117.877,117.877,0,0,0,111.378,45.094Zm49.576-12.508c9.665,0,17.624.227,25.584-.057,5.8-.227,11.655-.967,16.772-4.378a13.476,13.476,0,0,0,4.946-16.715c-2.445-5.685-7.732-7.959-14.668-6.311-.739.171-1.478.341-2.217.569Q142.847,19.6,94.266,33.609c-5.4,1.535-10.859,3.127-16.2,4.889-1.876.625-3.411,2.1-2.956,4.264.455,2.1,2.445,2.388,4.321,2.388,4.093,0,8.13.171,12.223-.057a40.012,40.012,0,0,0,8.528-1.478c8.187-2.217,16.146-5.458,24.447-6.822C137.19,34.633,149.982,33.78,160.954,32.586Z" transform="translate(-18.618 -0.021)"/>
        <path id="Path_250" data-name="Path 250" class="cls-1" d="M28.616,93.512c-3.354-.967-6.424-2.217-9.665-2.615a7.187,7.187,0,0,0-5.174,1.933c-2.047,1.933-3.98,2.843-6.538,1.649s-3.07-3.354-2.786-5.913A6.2,6.2,0,0,0,4.4,87.6c-2.1-.682-5.174-.967-4.15-4.321.967-3.127,3.525-1.876,5.913-1.364,1.08-2.786,2.786-5.117,6.2-4.321a7.657,7.657,0,0,1,3.7,2.615c1.194,1.535,1.819,3.468,2.786,5.174a2.7,2.7,0,0,0,1.478,1.137c3.07.853,6.14,1.649,9.494,2.558.967-3.525,1.762-6.993,3.013-10.29a6.059,6.059,0,0,1,3.241-3.354c3.354-1.08,6.083,1.99,5.174,5.515-.853,3.468-1.876,6.879-2.843,10.4.853.284,1.535.569,2.16.739.8,2.217-.853,4.207-3.411,3.866-2.558,9.381-5.117,18.818-7.675,28.2-3.468,12.906-6.879,25.811-10.347,38.66-.625,2.274-1.592,4.321-4.378,4.435a3.9,3.9,0,0,1-4.321-2.9,6.275,6.275,0,0,1,.114-3.241q8.7-32.662,17.511-65.381C28.274,95.1,28.388,94.422,28.616,93.512Z" transform="translate(-0.043 -32.464)"/>
      </g>
    </g>
    <g id="B086O9_3_" transform="translate(2.658 2.807)">
      <g id="Group_40" data-name="Group 40">
        <path id="Path_251" data-name="Path 251" class="cls-2" d="M115.978,50.051h3.866c29.109,0,58.161-.057,87.27,0,5.8,0,11.314,1.364,15.407,5.913,7.732,8.528,3.184,23.765-8.13,27.574-7.5,2.558-14.952,1.478-22.343-.284-14.327-3.468-28.654-7.107-42.981-10.575-12.451-3.013-25.186-2.331-37.864-2.16-7.789.114-15.464.8-22.684,3.98-4.491,1.99-8.073,5-9.608,9.779-5.856,18.022-11.6,36.1-17.4,54.181-.455,1.421-.8,2.9-1.137,4.378-2.1,8.642,2.445,15.635,11.314,17.511a7.438,7.438,0,0,1,6.026,5.4c.91,3.241-.512,6.311-3.752,7.05-6.254,1.535-11.541-1.023-16.2-4.776-8.642-6.879-11.541-16.26-9.381-26.607C51.45,126.689,55.6,112.191,59.3,97.58,63.1,82.343,66.8,67.05,70.666,51.813a18.248,18.248,0,0,1,13.019-13.7q55.858-16.2,111.773-32.065c5.572-1.592,11.03-1.819,16.089,1.478,10.29,6.766,9.1,23.651-2.047,30.018-5.856,3.3-12.337,4.15-18.818,4.435-13.36.569-26.721.682-40.025,1.251A119.857,119.857,0,0,0,115.978,50.051Zm49.633-12.508c9.665,0,17.624.227,25.584-.057,5.8-.227,11.655-.967,16.772-4.378a13.476,13.476,0,0,0,4.946-16.715c-2.445-5.685-7.732-7.959-14.668-6.311-.739.171-1.478.341-2.217.569Q147.5,24.552,98.922,38.566c-5.4,1.535-10.859,3.127-16.2,4.889-1.876.625-3.411,2.1-2.956,4.264.455,2.1,2.445,2.388,4.321,2.388,4.093,0,8.13.171,12.223-.057a40.011,40.011,0,0,0,8.528-1.478c8.187-2.217,16.146-5.458,24.447-6.822C141.846,39.59,154.582,38.737,165.611,37.543Z" transform="translate(-23.218 -4.921)"/>
        <path id="Path_252" data-name="Path 252" class="cls-2" d="M33.216,98.512c-3.354-.967-6.424-2.217-9.665-2.615a7.187,7.187,0,0,0-5.174,1.933c-2.047,1.933-3.98,2.843-6.538,1.649s-3.07-3.354-2.786-5.913A6.2,6.2,0,0,0,9,92.6c-2.1-.682-5.174-.967-4.15-4.321.967-3.127,3.525-1.876,5.913-1.364,1.08-2.786,2.786-5.117,6.2-4.321a7.657,7.657,0,0,1,3.7,2.615c1.194,1.535,1.819,3.468,2.786,5.174a2.7,2.7,0,0,0,1.478,1.137c3.07.853,6.14,1.649,9.494,2.558.967-3.525,1.762-6.993,3.013-10.29a6.059,6.059,0,0,1,3.241-3.354c3.354-1.08,6.083,1.99,5.174,5.515-.853,3.468-1.876,6.879-2.843,10.4.853.284,1.535.569,2.16.739.8,2.217-.853,4.207-3.411,3.866-2.558,9.381-5.117,18.818-7.675,28.2-3.468,12.906-6.879,25.811-10.347,38.66-.625,2.274-1.592,4.321-4.378,4.435a3.9,3.9,0,0,1-4.321-2.9,6.275,6.275,0,0,1,.114-3.241q8.7-32.662,17.511-65.381A13.82,13.82,0,0,0,33.216,98.512Z" transform="translate(-4.643 -37.407)"/>
      </g>
    </g>
  </g>
</svg>
