<svg xmlns="http://www.w3.org/2000/svg" viewBox="1180 3281 254.447 257.382">
  <defs>
    <style>
      .cls-1, .cls-5 {
        fill: #c1272d;
      }

      .cls-2 {
        opacity: 0.41;
      }

      .cls-3 {
        fill: #ff6d57;
      }

      .cls-4 {
        fill: #fff;
      }

      .cls-5 {
        stroke: #39b54a;
        stroke-miterlimit: 10;
      }
    </style>
  </defs>
  <g id="Group_29" data-name="Group 29" transform="translate(1180 3281)">
    <g id="Group_27" data-name="Group 27">
      <path id="Path_81" data-name="Path 81" class="cls-1" d="M247.674,126.433l6.773,8.805-3.387,8.128-15.127,5.644-13.546,4.064,25.061,16.03-7.9,6.1,3.612,11.289-4.967,7.451-13.321,1.355L205.68,190.1l-.226,9.257,10.16,21.449-11.74-.226-5.193,6.773-4.515,8.805-20.32-19.868-1.355,14.224-8.805-2.258L155.332,226l-3.161,19.642-8.805-3.838-9.031-16.03-7,31.608L120.563,226l-7.676,6.773L101.6,250.609l-2.258-23.48-8.579,2.484L77.666,241.126l-6.1-6.547L59.83,237.74l-1.355-13.321-12.643,2.258,5.419-18.739-7-3.612L32.06,204.1l10.16-17.385-9.257-2.709,7.451-12.418-27.77,4.741,18.513-15.578H4.967l19.417-12.869L4.29,143.366l12.869-9.257-7.225-7.676L0,117.854l15.127-6.773-2.258-8.354,18.739-3.161,3.612-5.87L37.7,87.374l-14.45-14.9,1.129-8.805,15.353.9,11.289-.226,1.58-7.676L39.51,32.286l22.8,14.224L53.283,21.674,70.216,32.286l5.87-4.967L85.568,29.8l3.612-11.289,9.482,4.967,5.419-9.708,8.805,7.451L118.757,0l8.579,7.9,7.225,15.578,9.257-16.256,4.967,16.933,9.031-5.87,7.451,2.032L176.329,14l6.547,5.644,3.612,9.934,11.966-3.612-5.419,19.868,4.741,5.419,18.513-7.676L204.325,64.12l21.9-7.225L233,62.314l-2.935,11.063,15.353,1.806-1.355,9.934-20.32,14.45,15.353,3.612-10.386,9.257,19.191,5.87Z"/>
    </g>
    <g id="Group_28" data-name="Group 28" class="cls-2" transform="translate(33.189 33.189)">
      <path id="Path_82" data-name="Path 82" class="cls-3" d="M196.674,107.945l6.547,9.257-3.838,8.579L183.8,130.3l-13.772,2.484,22.8,19.191-9.031,5.193.9,11.966-6.773,6.547-13.546-1.806-16.933-10.16-2.709,8.579L146.778,196l-11.063-4.515-7.9,4.29-8.128,6.1L110.428,175l-7.9,11.966-6.547-6.322-5.644-6.322L76.788,189l-5.193-8.354,2.484-18.288L48.792,182.9l15.127-28.447H53.759l-20.545,5.193,14.9-18.513-7.451-4.29L23.279,134.36l1.129-9.257L14.7,117.427l9.934-9.482-9.257-9.257,18.739-5.87-.226-8.128L28.246,74.078l20.094.677L46.76,65.5l14.224,2.032L45.857,43.6,67.08,55.339,58.5,30.5,76.788,45.179l-.9-20.545,12.192,10.16,5.87-8.805L101.171,14.7l9.257,13.772,8.128-3.161,4.515,18.513,5.87,2.935,5.87,2.032,14.9-14.224,8.805,1.355-1.58,15.353-.9,11.063,7.225,2.258,25.964-9.482-17.836,20.32,26.19-3.612-14.224,14,3.161,7-5.193,8.128Z" transform="translate(-14.7 -14.7)"/>
    </g>
    <path id="Path_83" data-name="Path 83" class="cls-4" d="M73.54,70.139A24.145,24.145,0,0,1,41.931,83.234C29.739,78.041,23.644,63.817,28.836,51.625a25.738,25.738,0,0,1,2.258-4.29A24.318,24.318,0,0,1,60.445,38.53,23.991,23.991,0,0,1,73.54,70.139Z" transform="translate(33.929 46.135)"/>
    <circle id="Ellipse_39" data-name="Ellipse 39" class="cls-4" cx="24.384" cy="24.384" r="24.384" transform="translate(138.399 82.182)"/>
    <path id="Path_84" data-name="Path 84" class="cls-5" d="M58.3,61.3A13.816,13.816,0,1,1,32.79,50.69a24.627,24.627,0,0,1,1.355-2.484A13.509,13.509,0,0,1,50.852,43.24,13.789,13.789,0,0,1,58.3,61.3Z" transform="translate(39.909 52.94)"/>
    <path id="Path_85" data-name="Path 85" class="cls-5" d="M92.6,60.3A13.816,13.816,0,1,1,67.09,49.69a24.622,24.622,0,0,1,1.355-2.484A13.509,13.509,0,0,1,85.152,42.24,13.711,13.711,0,0,1,92.6,60.3Z" transform="translate(83.05 51.682)"/>
    <path id="Path_86" data-name="Path 86" class="cls-1" d="M71.591,66.823,30.5,41.537a27.135,27.135,0,0,1,28-3.387C76.332,46.052,71.591,66.823,71.591,66.823Z" transform="translate(38.361 44.935)"/>
    <path id="Path_87" data-name="Path 87" class="cls-1" d="M61.437,64.224l43.8-19.868a27.066,27.066,0,0,0-27.319-6.773C59.4,43,61.437,64.224,61.437,64.224Z" transform="translate(77.188 45.728)"/>
  </g>
</svg>
