<svg xmlns="http://www.w3.org/2000/svg" viewBox="116.748 28 743.552 724.183">
  <defs>
    <style>
      .cls-1 {
        fill: #59c3c3;
      }

      .cls-2, .cls-3 {
        fill: none;
        stroke: #fff;
        stroke-miterlimit: 10;
      }

      .cls-2 {
        stroke-width: 8.504px;
      }

      .cls-3 {
        stroke-width: 14.173px;
      }
    </style>
  </defs>
  <g id="Group_49" data-name="Group 49" transform="translate(116.7 28.031)">
    <circle id="Ellipse_44" data-name="Ellipse 44" class="cls-1" cx="15.9" cy="15.9" r="15.9" transform="translate(4.3 683.1)"/>
    <circle id="Ellipse_45" data-name="Ellipse 45" class="cls-2" cx="15.9" cy="15.9" r="15.9" transform="translate(4.3 688.1)"/>
    <circle id="Ellipse_46" data-name="Ellipse 46" class="cls-1" cx="24.5" cy="24.5" r="24.5" transform="translate(60.3 627.4)"/>
    <circle id="Ellipse_47" data-name="Ellipse 47" class="cls-1" cx="43.9" cy="43.9" r="43.9" transform="translate(123 551.2)"/>
    <path id="Path_280" data-name="Path 280" class="cls-1" d="M129.1,72.9s42.3-65.2,148-33.5c0,0,119.8-82.6,248.5-8.7,0,0,165.6-21.3,155.1,146.2,0,0,109.3,135.7-33.5,285.5,0,0-17.6,107.5-213.2,112.8,0,0-163.9,49.3-236.1-89.9,0,0-111.7,1.8-83.2-155.1,0,0-66.1-33.5-47.8-169.2C66.8,161,56.9,92.3,129.1,72.9Z"/>
    <circle id="Ellipse_48" data-name="Ellipse 48" class="cls-2" cx="24.5" cy="24.5" r="24.5" transform="translate(65 634.2)"/>
    <circle id="Ellipse_49" data-name="Ellipse 49" class="cls-2" cx="43.9" cy="43.9" r="43.9" transform="translate(131.1 563.2)"/>
    <path id="Path_281" data-name="Path 281" class="cls-3" d="M144.9,94.1s42.3-65.2,148-33.5c0,0,119.8-82.6,248.5-8.7,0,0,165.6-21.3,155.1,146.2,0,0,109.3,135.7-33.5,285.5,0,0-17.6,107.5-213.2,112.8,0,0-163.9,49.3-236.1-89.9,0,0-111.7,1.8-83.2-155.1,0,0-66.1-33.5-47.8-169.2C82.6,182.2,72.6,113.5,144.9,94.1Z"/>
  </g>
</svg>
