<svg xmlns="http://www.w3.org/2000/svg" xmlns:xlink="http://www.w3.org/1999/xlink" viewBox="-1435 0 1366 768">
  <defs>
    <style>
      .cls-1 {
        clip-path: url(#clip-Web_1366_1);
      }

      .cls-2 {
        fill: #8acbcc;
      }

      .cls-3 {
        fill: #ff686b;
      }

      .cls-4 {
        fill: #fff;
      }
    </style>
    <clipPath id="clip-Web_1366_1">
      <rect x="-1435" width="1366" height="768"/>
    </clipPath>
  </defs>
  <g id="Web_1366_1" data-name="Web 1366 – 1" class="cls-1">
    <rect class="cls-4" x="-1435" width="1366" height="768"/>
    <g id="Group_59" data-name="Group 59" transform="translate(-1435 -90)">
      <path id="Path_288" data-name="Path 288" class="cls-2" d="M0,0H1366V912.835L0,1084.624Z" transform="translate(0 671)"/>
      <g id="Group_47" data-name="Group 47">
        <rect id="Rectangle_12" data-name="Rectangle 12" class="cls-3" width="1366" height="674.796"/>
        <path id="Path_19" data-name="Path 19" class="cls-3" d="M0,834l30.9,35.136L61.791,834l30.9,35.136L123.581,834l30.9,35.136L185.372,834l30.9,35.136L247.162,834l30.9,35.136L308.953,834l30.9,35.136L370.743,834l30.9,35.136L432.534,834l30.9,35.136L494.325,834l30.9,35.136L556.115,834l30.9,35.136L617.906,834l30.9,35.136L679.7,834" transform="translate(679.443 -160.014)"/>
        <path id="Path_18" data-name="Path 18" class="cls-3" d="M0,834l30.9,35.136L61.791,834l30.9,35.136L123.581,834l30.9,35.136L185.372,834l30.9,35.136L247.162,834l30.9,35.136L308.953,834l30.9,35.136L370.743,834l30.9,35.136L432.534,834l30.9,35.136L494.325,834l30.9,35.136L556.115,834l30.9,35.136L617.906,834l30.9,35.136L679.7,834" transform="translate(0 -160.014)"/>
      </g>
    </g>
  </g>
</svg>
