<svg xmlns="http://www.w3.org/2000/svg" xmlns:xlink="http://www.w3.org/1999/xlink" viewBox="-1435 3090 1366 768">
  <defs>
    <style>
      .cls-1 {
        clip-path: url(#clip-Web_1366_5);
      }

      .cls-2 {
        fill: #59c3c3;
      }

      .cls-3 {
        fill: #fff;
      }
    </style>
    <clipPath id="clip-Web_1366_5">
      <rect x="-1435" y="3090" width="1366" height="768"/>
    </clipPath>
  </defs>
  <g id="Web_1366_5" data-name="Web 1366 – 5" class="cls-1">
    <rect class="cls-3" x="-1435" y="3090" width="1366" height="768"/>
    <g id="Group_48" data-name="Group 48" transform="translate(-1435 -1170)">
      <path id="Path_260" data-name="Path 260" class="cls-2" d="M0,4942.618v779.491l1365.348-.48V5034.258Z" transform="translate(0 -682.686)"/>
      <g id="Group_44" data-name="Group 44" transform="translate(6.148 5038.669)">
        <path id="Path_258" data-name="Path 258" class="cls-2" d="M0,0,31.169,60.74,62.338,0,93.507,60.74,124.676,0l31.169,60.74L187.015,0l31.169,60.74L249.353,0l31.169,60.74L311.691,0,342.86,60.74,374.029,0,405.2,60.74,436.367,0l31.169,60.74L498.705,0l31.169,60.74L561.044,0l31.169,60.74L623.382,0l31.169,60.74L685.72,0" transform="translate(674.132 0)"/>
        <path id="Path_259" data-name="Path 259" class="cls-2" d="M0,0,31.169,60.74,62.338,0,93.507,60.74,124.676,0l31.169,60.74L187.015,0l31.169,60.74L249.353,0l31.169,60.74L311.691,0,342.86,60.74,374.029,0,405.2,60.74,436.367,0l31.169,60.74L498.705,0l31.169,60.74L561.044,0l31.169,60.74L623.382,0l31.169,60.74L685.72,0" transform="translate(0 0)"/>
      </g>
    </g>
  </g>
</svg>
